<svg xmlns="http://www.w3.org/2000/svg" xmlns:xlink="http://www.w3.org/1999/xlink" width="610" height="342.23"><rect width="610" height="342.23" rx="5" ry="5" class="a"/><svg y="0%" x="0%"><circle cx="20" cy="20" r="6" fill="#ff5f58"/><circle cx="40" cy="20" r="6" fill="#ffbd2e"/><circle cx="60" cy="20" r="6" fill="#18c132"/></svg><svg height="282.23" viewBox="0 0 57 28.223" width="570" x="15" xmlns="http://www.w3.org/2000/svg" xmlns:xlink="http://www.w3.org/1999/xlink" y="50"><style>@keyframes j{0%{transform:translateX(0)}7%{transform:translateX(-57px)}11.5%{transform:translateX(-114px)}16.2%{transform:translateX(-171px)}18.8%{transform:translateX(-228px)}19.7%{transform:translateX(-285px)}22.6%{transform:translateX(-342px)}25.8%{transform:translateX(-399px)}27.1%{transform:translateX(-456px)}27.8%{transform:translateX(-513px)}30.4%{transform:translateX(-570px)}31.5%{transform:translateX(-627px)}33.2%{transform:translateX(-684px)}35.3%{transform:translateX(-741px)}41.1%{transform:translateX(-798px)}42.9%{transform:translateX(-855px)}44.1%{transform:translateX(-912px)}46.3%{transform:translateX(-969px)}47.8%{transform:translateX(-1026px)}49.4%{transform:translateX(-1083px)}51%{transform:translateX(-1140px)}53.2%{transform:translateX(-1311px)}61.8%{transform:translateX(-1482px)}64.7%{transform:translateX(-1596px)}to{transform:translateX(-1653px)}}.a{fill:#282d35}.f,.g{fill:#d290e4;white-space:pre}.g{fill:#b9c0cb}</style><g font-family="Monaco,Consolas,Menlo,'Bitstream Vera Sans Mono','Powerline Symbols',monospace" font-size="1.67"><defs><symbol id="1"><text y="1.67" class="f">[app-ls]</text></symbol><symbol id="2"><text y="1.67" class="f">[app-ls]</text><text x="9.018" y="1.67" class="g">ecs-preview</text></symbol><symbol id="3"><text y="1.67" class="f">[app-ls]</text><text x="9.018" y="1.67" class="g">ecs-preview</text><text x="21.042" y="1.67" class="g">app</text></symbol><symbol id="4"><text y="1.67" class="f">[app-ls]</text><text x="9.018" y="1.67" class="g">ecs-preview</text><text x="21.042" y="1.67" class="g">app</text><text x="25.05" y="1.67" class="g">ls</text></symbol><symbol id="5"><text y="1.67" class="g">Name</text><text x="20.04" y="1.67" class="g">Type</text></symbol><symbol id="6"><text y="1.67" class="g">---------</text><text x="20.04" y="1.67" class="g">---------------------</text></symbol><symbol id="7"><text y="1.67" class="g">back-end</text><text x="20.04" y="1.67" class="g">Load</text><text x="25.05" y="1.67" class="g">Balanced</text><text x="34.068" y="1.67" class="g">Web</text><text x="38.076" y="1.67" class="g">App</text></symbol><symbol id="8"><text y="1.67" class="g">front-end</text><text x="20.04" y="1.67" class="g">Load</text><text x="25.05" y="1.67" class="g">Balanced</text><text x="34.068" y="1.67" class="g">Web</text><text x="38.076" y="1.67" class="g">App</text></symbol><symbol id="a"><path fill="transparent" d="M0 0h57v13H0z"/></symbol><symbol id="b"><path fill="#6f7683" d="M0 0h1.102v2.171H0z"/></symbol></defs><path class="a" d="M0 0h57v28.223H0z"/><g style="animation-duration:7.821268s;animation-iteration-count:infinite;animation-name:j;animation-timing-function:steps(1,end)"><svg width="1710"><svg><use xlink:href="#a"/><use xlink:href="#b" x="-.004"/></svg><svg x="57"><use xlink:href="#a"/><use xlink:href="#b" x="-.004"/></svg><svg x="114"><use xlink:href="#a"/><use xlink:href="#b" x="8.996"/><use xlink:href="#1"/></svg><svg x="171"><use xlink:href="#a"/><use xlink:href="#b" x="9.996"/><text y="1.67" class="f">[app-ls]</text><text x="9.018" y="1.67" class="g">e</text></svg><svg x="228"><use xlink:href="#a"/><use xlink:href="#b" x="10.996"/><text y="1.67" class="f">[app-ls]</text><text x="9.018" y="1.67" class="g">ec</text></svg><svg x="285"><use xlink:href="#a"/><use xlink:href="#b" x="11.996"/><text y="1.67" class="f">[app-ls]</text><text x="9.018" y="1.67" class="g">ecs</text></svg><svg x="342"><use xlink:href="#a"/><use xlink:href="#b" x="12.996"/><text y="1.67" class="f">[app-ls]</text><text x="9.018" y="1.67" class="g">ecs-</text></svg><svg x="399"><use xlink:href="#a"/><use xlink:href="#b" x="13.996"/><text y="1.67" class="f">[app-ls]</text><text x="9.018" y="1.67" class="g">ecs-p</text></svg><svg x="456"><use xlink:href="#a"/><use xlink:href="#b" x="14.996"/><text y="1.67" class="f">[app-ls]</text><text x="9.018" y="1.67" class="g">ecs-pr</text></svg><svg x="513"><use xlink:href="#a"/><use xlink:href="#b" x="15.996"/><text y="1.67" class="f">[app-ls]</text><text x="9.018" y="1.67" class="g">ecs-pre</text></svg><svg x="570"><use xlink:href="#a"/><use xlink:href="#b" x="16.996"/><text y="1.67" class="f">[app-ls]</text><text x="9.018" y="1.67" class="g">ecs-prev</text></svg><svg x="627"><use xlink:href="#a"/><use xlink:href="#b" x="17.996"/><text y="1.67" class="f">[app-ls]</text><text x="9.018" y="1.67" class="g">ecs-previ</text></svg><svg x="684"><use xlink:href="#a"/><use xlink:href="#b" x="18.996"/><text y="1.67" class="f">[app-ls]</text><text x="9.018" y="1.67" class="g">ecs-previe</text></svg><svg x="741"><use xlink:href="#a"/><use xlink:href="#b" x="19.996"/><use xlink:href="#2"/></svg><svg x="798"><use xlink:href="#a"/><use xlink:href="#b" x="20.996"/><use xlink:href="#2"/></svg><svg x="855"><use xlink:href="#a"/><use xlink:href="#b" x="21.996"/><text y="1.67" class="f">[app-ls]</text><text x="9.018" y="1.67" class="g">ecs-preview</text><text x="21.042" y="1.67" class="g">a</text></svg><svg x="912"><use xlink:href="#a"/><use xlink:href="#b" x="22.996"/><text y="1.67" class="f">[app-ls]</text><text x="9.018" y="1.67" class="g">ecs-preview</text><text x="21.042" y="1.67" class="g">ap</text></svg><svg x="969"><use xlink:href="#a"/><use xlink:href="#b" x="23.996"/><use xlink:href="#3"/></svg><svg x="1026"><use xlink:href="#a"/><use xlink:href="#b" x="24.996"/><use xlink:href="#3"/></svg><svg x="1083"><use xlink:href="#a"/><use xlink:href="#b" x="25.996"/><text y="1.67" class="f">[app-ls]</text><text x="9.018" y="1.67" class="g">ecs-preview</text><text x="21.042" y="1.67" class="g">app</text><text x="25.05" y="1.67" class="g">l</text></svg><svg x="1140"><use xlink:href="#a"/><use xlink:href="#b" x="26.996"/><use xlink:href="#4"/></svg><svg x="1197"><use xlink:href="#a"/><use xlink:href="#b" x="26.996"/><use xlink:href="#4"/></svg><svg x="1254"><use xlink:href="#a"/><use xlink:href="#b" x="-.004" y="2.146"/><use xlink:href="#4"/></svg><svg x="1311"><use xlink:href="#a"/><use xlink:href="#b" x="-.004" y="2.146"/><use xlink:href="#4"/></svg><svg x="1368"><use xlink:href="#a"/><use xlink:href="#b" x="-.004" y="10.83"/><use xlink:href="#4"/><use xlink:href="#5" y="2.171"/><use xlink:href="#6" y="4.342"/><use xlink:href="#7" y="6.513"/><use xlink:href="#8" y="8.684"/></svg><svg x="1425"><use xlink:href="#a"/><use xlink:href="#b" x="-.004" y="10.83"/><use xlink:href="#4"/><use xlink:href="#5" y="2.171"/><use xlink:href="#6" y="4.342"/><use xlink:href="#7" y="6.513"/><use xlink:href="#8" y="8.684"/></svg><svg x="1482"><use xlink:href="#a"/><use xlink:href="#b" x="-.004" y="10.83"/><use xlink:href="#4"/><use xlink:href="#5" y="2.171"/><use xlink:href="#6" y="4.342"/><use xlink:href="#7" y="6.513"/><use xlink:href="#8" y="8.684"/></svg><svg x="1539"><use xlink:href="#a"/><use xlink:href="#b" x="8.996" y="10.83"/><use xlink:href="#4"/><use xlink:href="#5" y="2.171"/><use xlink:href="#6" y="4.342"/><use xlink:href="#7" y="6.513"/><use xlink:href="#8" y="8.684"/><use xlink:href="#1" y="10.855"/></svg><svg x="1596"><use xlink:href="#a"/><use xlink:href="#b" x="8.996" y="10.83"/><use xlink:href="#4"/><use xlink:href="#5" y="2.171"/><use xlink:href="#6" y="4.342"/><use xlink:href="#7" y="6.513"/><use xlink:href="#8" y="8.684"/><use xlink:href="#1" y="10.855"/></svg><svg x="1653"><use xlink:href="#a"/><use xlink:href="#b" x="-.004" y="13.001"/><use xlink:href="#4"/><use xlink:href="#5" y="2.171"/><use xlink:href="#6" y="4.342"/><use xlink:href="#7" y="6.513"/><use xlink:href="#8" y="8.684"/><use xlink:href="#1" y="10.855"/></svg></svg></g></g></svg></svg>