<svg xmlns="http://www.w3.org/2000/svg" xmlns:xlink="http://www.w3.org/1999/xlink" width="1190" height="624.46"><rect width="1190" height="624.46" rx="5" ry="5" class="a"/><svg y="0%" x="0%"><circle cx="20" cy="20" r="6" fill="#ff5f58"/><circle cx="40" cy="20" r="6" fill="#ffbd2e"/><circle cx="60" cy="20" r="6" fill="#18c132"/></svg><svg height="564.46" viewBox="0 0 115 56.446" width="1150" x="15" xmlns="http://www.w3.org/2000/svg" xmlns:xlink="http://www.w3.org/1999/xlink" y="50"><style>@keyframes k{0%{transform:translateX(0)}3.8%{transform:translateX(-115px)}3.9%{transform:translateX(-230px)}6.1%{transform:translateX(-690px)}12.2%{transform:translateX(-805px)}13.6%{transform:translateX(-920px)}14%{transform:translateX(-1035px)}14.6%{transform:translateX(-1150px)}16.3%{transform:translateX(-1265px)}17.4%{transform:translateX(-1380px)}17.8%{transform:translateX(-1495px)}19.2%{transform:translateX(-1610px)}20%{transform:translateX(-1725px)}21.2%{transform:translateX(-1840px)}21.5%{transform:translateX(-1955px)}22.4%{transform:translateX(-2070px)}23.6%{transform:translateX(-2185px)}24.2%{transform:translateX(-2300px)}25.4%{transform:translateX(-2415px)}26%{transform:translateX(-2530px)}27%{transform:translateX(-2645px)}27.7%{transform:translateX(-2760px)}28%{transform:translateX(-2875px)}28.8%{transform:translateX(-2990px)}29.8%{transform:translateX(-3335px)}41.9%{transform:translateX(-3680px)}43.1%{transform:translateX(-4025px)}to{transform:translateX(-4140px)}}.a{fill:#282d35}.f,.g,.h{fill:#d290e4;white-space:pre}.g,.h{fill:#b9c0cb}.h{font-weight:700}</style><g font-family="Monaco,Consolas,Menlo,'Bitstream Vera Sans Mono','Powerline Symbols',monospace" font-size="1.67"><defs><symbol id="12"><text y="1.67" class="h">Routes</text></symbol><symbol id="1"><text y="1.67" class="f">[app-show]</text></symbol><symbol id="3"><text y="1.67" class="f">[app-show]</text><text x="11.022" y="1.67" class="g">ecs-preview</text><text x="23.046" y="1.67" class="g">app</text></symbol><symbol id="4"><text y="1.67" class="f">[app-show]</text><text x="11.022" y="1.67" class="g">ecs-preview</text><text x="23.046" y="1.67" class="g">app</text><text x="27.054" y="1.67" class="g">show</text></symbol><symbol id="5"><text y="1.67" class="h">About</text></symbol><symbol id="6"><text x="2.004" y="1.67" class="g">Project</text><text x="20.04" y="1.67" class="g">kudos</text></symbol><symbol id="7"><text x="2.004" y="1.67" class="g">Name</text><text x="20.04" y="1.67" class="g">front-end</text></symbol><symbol id="8"><text x="2.004" y="1.67" class="g">Type</text><text x="20.04" y="1.67" class="g">Load</text><text x="25.05" y="1.67" class="g">Balanced</text><text x="34.068" y="1.67" class="g">Web</text><text x="38.076" y="1.67" class="g">App</text></symbol><symbol id="9"><text y="1.67" class="h">Configurations</text></symbol><symbol id="10"><text x="2.004" y="1.67" class="g">Environment</text><text x="20.04" y="1.67" class="g">Tasks</text><text x="40.08" y="1.67" class="g">CPU</text><text x="44.088" y="1.67" class="g">(vCPU)</text><text x="60.12" y="1.67" class="g">Memory</text><text x="67.134" y="1.67" class="g">(MiB)</text><text x="80.16" y="1.67" class="g">Port</text></symbol><symbol id="11"><text x="2.004" y="1.67" class="g">test</text><text x="20.04" y="1.67" class="g">1</text><text x="40.08" y="1.67" class="g">0.25</text><text x="60.12" y="1.67" class="g">512</text><text x="80.16" y="1.67" class="g">80</text></symbol><symbol id="2"><text y="1.67" class="f">[app-show]</text><text x="11.022" y="1.67" class="g">ecs-preview</text></symbol><symbol id="13"><text x="2.004" y="1.67" class="g">Environment</text><text x="20.04" y="1.67" class="g">URL</text></symbol><symbol id="14"><text x="2.004" y="1.67" class="g">test</text><text x="20.04" y="1.67" class="g">http://kudos-Publi-5O8ZTAKGXJAY-2145033149.us-west-2.elb.amazonaws.com/front-end</text></symbol><symbol id="15"><text y="1.67" class="h">Variables</text></symbol><symbol id="16"><text x="2.004" y="1.67" class="g">Name</text><text x="30.06" y="1.67" class="g">Environment</text><text x="50.1" y="1.67" class="g">Value</text></symbol><symbol id="17"><text x="2.004" y="1.67" class="g">ECS_APP_DISCOVERY_ENDPOINT</text><text x="30.06" y="1.67" class="g">test</text><text x="50.1" y="1.67" class="g">kudos.local</text></symbol><symbol id="18"><text x="2.004" y="1.67" class="g">ECS_CLI_APP_NAME</text><text x="30.06" y="1.67" class="g">test</text><text x="50.1" y="1.67" class="g">front-end</text></symbol><symbol id="19"><text x="2.004" y="1.67" class="g">ECS_CLI_ENVIRONMENT_NAME</text><text x="30.06" y="1.67" class="g">test</text><text x="50.1" y="1.67" class="g">test</text></symbol><symbol id="20"><text x="2.004" y="1.67" class="g">ECS_CLI_LB_DNS</text><text x="30.06" y="1.67" class="g">test</text><text x="50.1" y="1.67" class="g">kudos-Publi-5O8ZTAKGXJAY-2145033149.us-west-2.elb.amazonaws.com</text></symbol><symbol id="21"><text x="2.004" y="1.67" class="g">ECS_CLI_PROJECT_NAME</text><text x="30.06" y="1.67" class="g">test</text><text x="50.1" y="1.67" class="g">kudos</text></symbol><symbol id="a"><path fill="transparent" d="M0 0h115v26H0z"/></symbol><symbol id="b"><path fill="#6f7683" d="M0 0h1.102v2.171H0z"/></symbol></defs><path class="a" d="M0 0h115v56.446H0z"/><g style="animation-duration:14.275825000000001s;animation-iteration-count:infinite;animation-name:k;animation-timing-function:steps(1,end)"><svg width="4255"><svg><use xlink:href="#a"/><use xlink:href="#b" x="-.004"/></svg><svg x="115"><use xlink:href="#a"/><use xlink:href="#b" x="-.004"/></svg><svg x="230"><use xlink:href="#a"/><use xlink:href="#b" x="-.004"/></svg><svg x="345"><use xlink:href="#a"/><use xlink:href="#b" x="10.996"/><use xlink:href="#1"/></svg><svg x="460"><use xlink:href="#a"/><use xlink:href="#b" x="10.996"/><use xlink:href="#1"/></svg><svg x="575"><use xlink:href="#a"/><use xlink:href="#b" x="10.996"/><use xlink:href="#1"/></svg><svg x="690"><use xlink:href="#a"/><use xlink:href="#b" x="10.996"/><use xlink:href="#1"/></svg><svg x="805"><use xlink:href="#a"/><use xlink:href="#b" x="11.996"/><text y="1.67" class="f">[app-show]</text><text x="11.022" y="1.67" class="g">e</text></svg><svg x="920"><use xlink:href="#a"/><use xlink:href="#b" x="12.996"/><text y="1.67" class="f">[app-show]</text><text x="11.022" y="1.67" class="g">ec</text></svg><svg x="1035"><use xlink:href="#a"/><use xlink:href="#b" x="13.996"/><text y="1.67" class="f">[app-show]</text><text x="11.022" y="1.67" class="g">ecs</text></svg><svg x="1150"><use xlink:href="#a"/><use xlink:href="#b" x="14.996"/><text y="1.67" class="f">[app-show]</text><text x="11.022" y="1.67" class="g">ecs-</text></svg><svg x="1265"><use xlink:href="#a"/><use xlink:href="#b" x="15.996"/><text y="1.67" class="f">[app-show]</text><text x="11.022" y="1.67" class="g">ecs-p</text></svg><svg x="1380"><use xlink:href="#a"/><use xlink:href="#b" x="16.996"/><text y="1.67" class="f">[app-show]</text><text x="11.022" y="1.67" class="g">ecs-pr</text></svg><svg x="1495"><use xlink:href="#a"/><use xlink:href="#b" x="17.996"/><text y="1.67" class="f">[app-show]</text><text x="11.022" y="1.67" class="g">ecs-pre</text></svg><svg x="1610"><use xlink:href="#a"/><use xlink:href="#b" x="18.996"/><text y="1.67" class="f">[app-show]</text><text x="11.022" y="1.67" class="g">ecs-prev</text></svg><svg x="1725"><use xlink:href="#a"/><use xlink:href="#b" x="19.996"/><text y="1.67" class="f">[app-show]</text><text x="11.022" y="1.67" class="g">ecs-previ</text></svg><svg x="1840"><use xlink:href="#a"/><use xlink:href="#b" x="20.996"/><text y="1.67" class="f">[app-show]</text><text x="11.022" y="1.67" class="g">ecs-previe</text></svg><svg x="1955"><use xlink:href="#a"/><use xlink:href="#b" x="21.996"/><use xlink:href="#2"/></svg><svg x="2070"><use xlink:href="#a"/><use xlink:href="#b" x="22.996"/><use xlink:href="#2"/></svg><svg x="2185"><use xlink:href="#a"/><use xlink:href="#b" x="23.996"/><text y="1.67" class="f">[app-show]</text><text x="11.022" y="1.67" class="g">ecs-preview</text><text x="23.046" y="1.67" class="g">a</text></svg><svg x="2300"><use xlink:href="#a"/><use xlink:href="#b" x="24.996"/><text y="1.67" class="f">[app-show]</text><text x="11.022" y="1.67" class="g">ecs-preview</text><text x="23.046" y="1.67" class="g">ap</text></svg><svg x="2415"><use xlink:href="#a"/><use xlink:href="#b" x="25.996"/><use xlink:href="#3"/></svg><svg x="2530"><use xlink:href="#a"/><use xlink:href="#b" x="26.996"/><use xlink:href="#3"/></svg><svg x="2645"><use xlink:href="#a"/><use xlink:href="#b" x="27.996"/><text y="1.67" class="f">[app-show]</text><text x="11.022" y="1.67" class="g">ecs-preview</text><text x="23.046" y="1.67" class="g">app</text><text x="27.054" y="1.67" class="g">s</text></svg><svg x="2760"><use xlink:href="#a"/><use xlink:href="#b" x="28.996"/><text y="1.67" class="f">[app-show]</text><text x="11.022" y="1.67" class="g">ecs-preview</text><text x="23.046" y="1.67" class="g">app</text><text x="27.054" y="1.67" class="g">sh</text></svg><svg x="2875"><use xlink:href="#a"/><use xlink:href="#b" x="29.996"/><text y="1.67" class="f">[app-show]</text><text x="11.022" y="1.67" class="g">ecs-preview</text><text x="23.046" y="1.67" class="g">app</text><text x="27.054" y="1.67" class="g">sho</text></svg><svg x="2990"><use xlink:href="#a"/><use xlink:href="#b" x="30.996"/><use xlink:href="#4"/></svg><svg x="3105"><use xlink:href="#a"/><use xlink:href="#b" x="30.996"/><use xlink:href="#4"/></svg><svg x="3220"><use xlink:href="#a"/><use xlink:href="#b" x="-.004" y="2.146"/><use xlink:href="#4"/></svg><svg x="3335"><use xlink:href="#a"/><use xlink:href="#b" x="-.004" y="2.146"/><use xlink:href="#4"/></svg><svg x="3450"><use xlink:href="#a"/><use xlink:href="#b" x="-.004" y="54.25"/><use xlink:href="#4"/><use xlink:href="#5" y="2.171"/><use xlink:href="#6" y="6.513"/><use xlink:href="#7" y="8.684"/><use xlink:href="#8" y="10.855"/><use xlink:href="#9" y="15.197"/><use xlink:href="#10" y="19.539"/><use xlink:href="#11" y="21.71"/><use xlink:href="#12" y="26.052"/><use xlink:href="#13" y="30.394"/><use xlink:href="#14" y="32.565"/><use xlink:href="#15" y="36.907"/><use xlink:href="#16" y="41.249"/><use xlink:href="#17" y="43.42"/><use xlink:href="#18" y="45.591"/><use xlink:href="#19" y="47.762"/><use xlink:href="#20" y="49.933"/><use xlink:href="#21" y="52.104"/></svg><svg x="3565"><use xlink:href="#a"/><use xlink:href="#b" x="-.004" y="54.25"/><use xlink:href="#4"/><use xlink:href="#5" y="2.171"/><use xlink:href="#6" y="6.513"/><use xlink:href="#7" y="8.684"/><use xlink:href="#8" y="10.855"/><use xlink:href="#9" y="15.197"/><use xlink:href="#10" y="19.539"/><use xlink:href="#11" y="21.71"/><use xlink:href="#12" y="26.052"/><use xlink:href="#13" y="30.394"/><use xlink:href="#14" y="32.565"/><use xlink:href="#15" y="36.907"/><use xlink:href="#16" y="41.249"/><use xlink:href="#17" y="43.42"/><use xlink:href="#18" y="45.591"/><use xlink:href="#19" y="47.762"/><use xlink:href="#20" y="49.933"/><use xlink:href="#21" y="52.104"/></svg><svg x="3680"><use xlink:href="#a"/><use xlink:href="#b" x="-.004" y="54.25"/><use xlink:href="#4"/><use xlink:href="#5" y="2.171"/><use xlink:href="#6" y="6.513"/><use xlink:href="#7" y="8.684"/><use xlink:href="#8" y="10.855"/><use xlink:href="#9" y="15.197"/><use xlink:href="#10" y="19.539"/><use xlink:href="#11" y="21.71"/><use xlink:href="#12" y="26.052"/><use xlink:href="#13" y="30.394"/><use xlink:href="#14" y="32.565"/><use xlink:href="#15" y="36.907"/><use xlink:href="#16" y="41.249"/><use xlink:href="#17" y="43.42"/><use xlink:href="#18" y="45.591"/><use xlink:href="#19" y="47.762"/><use xlink:href="#20" y="49.933"/><use xlink:href="#21" y="52.104"/></svg><svg x="3795"><use xlink:href="#a"/><use xlink:href="#b" x="10.996" y="54.25"/><use xlink:href="#4"/><use xlink:href="#5" y="2.171"/><use xlink:href="#6" y="6.513"/><use xlink:href="#7" y="8.684"/><use xlink:href="#8" y="10.855"/><use xlink:href="#9" y="15.197"/><use xlink:href="#10" y="19.539"/><use xlink:href="#11" y="21.71"/><use xlink:href="#12" y="26.052"/><use xlink:href="#13" y="30.394"/><use xlink:href="#14" y="32.565"/><use xlink:href="#15" y="36.907"/><use xlink:href="#16" y="41.249"/><use xlink:href="#17" y="43.42"/><use xlink:href="#18" y="45.591"/><use xlink:href="#19" y="47.762"/><use xlink:href="#20" y="49.933"/><use xlink:href="#21" y="52.104"/><use xlink:href="#1" y="54.275"/></svg><svg x="3910"><use xlink:href="#a"/><use xlink:href="#b" x="10.996" y="54.25"/><use xlink:href="#4"/><use xlink:href="#5" y="2.171"/><use xlink:href="#6" y="6.513"/><use xlink:href="#7" y="8.684"/><use xlink:href="#8" y="10.855"/><use xlink:href="#9" y="15.197"/><use xlink:href="#10" y="19.539"/><use xlink:href="#11" y="21.71"/><use xlink:href="#12" y="26.052"/><use xlink:href="#13" y="30.394"/><use xlink:href="#14" y="32.565"/><use xlink:href="#15" y="36.907"/><use xlink:href="#16" y="41.249"/><use xlink:href="#17" y="43.42"/><use xlink:href="#18" y="45.591"/><use xlink:href="#19" y="47.762"/><use xlink:href="#20" y="49.933"/><use xlink:href="#21" y="52.104"/><use xlink:href="#1" y="54.275"/></svg><svg x="4025"><use xlink:href="#a"/><use xlink:href="#b" x="10.996" y="54.25"/><use xlink:href="#4"/><use xlink:href="#5" y="2.171"/><use xlink:href="#6" y="6.513"/><use xlink:href="#7" y="8.684"/><use xlink:href="#8" y="10.855"/><use xlink:href="#9" y="15.197"/><use xlink:href="#10" y="19.539"/><use xlink:href="#11" y="21.71"/><use xlink:href="#12" y="26.052"/><use xlink:href="#13" y="30.394"/><use xlink:href="#14" y="32.565"/><use xlink:href="#15" y="36.907"/><use xlink:href="#16" y="41.249"/><use xlink:href="#17" y="43.42"/><use xlink:href="#18" y="45.591"/><use xlink:href="#19" y="47.762"/><use xlink:href="#20" y="49.933"/><use xlink:href="#21" y="52.104"/><use xlink:href="#1" y="54.275"/></svg><svg x="4140"><use xlink:href="#a"/><use xlink:href="#b" x="-.004" y="54.25"/><use xlink:href="#5"/><use xlink:href="#6" y="4.342"/><use xlink:href="#7" y="6.513"/><use xlink:href="#8" y="8.684"/><use xlink:href="#9" y="13.026"/><use xlink:href="#10" y="17.368"/><use xlink:href="#11" y="19.539"/><use xlink:href="#12" y="23.881"/><use xlink:href="#13" y="28.223"/><use xlink:href="#14" y="30.394"/><use xlink:href="#15" y="34.736"/><use xlink:href="#16" y="39.078"/><use xlink:href="#17" y="41.249"/><use xlink:href="#18" y="43.42"/><use xlink:href="#19" y="45.591"/><use xlink:href="#20" y="47.762"/><use xlink:href="#21" y="49.933"/><use xlink:href="#1" y="52.104"/></svg></svg></g></g></svg></svg>