<svg xmlns="http://www.w3.org/2000/svg" xmlns:xlink="http://www.w3.org/1999/xlink" width="1060" height="515.91"><rect width="1060" height="515.91" rx="5" ry="5" class="a"/><svg y="0%" x="0%"><circle cx="20" cy="20" r="6" fill="#ff5f58"/><circle cx="40" cy="20" r="6" fill="#ffbd2e"/><circle cx="60" cy="20" r="6" fill="#18c132"/></svg><svg height="455.91" viewBox="0 0 102 45.591" width="1020" x="15" xmlns="http://www.w3.org/2000/svg" xmlns:xlink="http://www.w3.org/1999/xlink" y="50"><style>@keyframes p{0%{transform:translateX(0)}3.1%{transform:translateX(-204px)}4.7%{transform:translateX(-510px)}8.6%{transform:translateX(-612px)}10.3%{transform:translateX(-714px)}10.6%{transform:translateX(-816px)}11.4%{transform:translateX(-918px)}12.9%{transform:translateX(-1020px)}13.8%{transform:translateX(-1122px)}14.2%{transform:translateX(-1224px)}15.7%{transform:translateX(-1326px)}16.6%{transform:translateX(-1428px)}17.3%{transform:translateX(-1530px)}17.6%{transform:translateX(-1632px)}18.4%{transform:translateX(-1734px)}19.2%{transform:translateX(-1836px)}19.7%{transform:translateX(-1938px)}21%{transform:translateX(-2040px)}21.7%{transform:translateX(-2142px)}22.4%{transform:translateX(-2244px)}23.3%{transform:translateX(-2346px)}23.9%{transform:translateX(-2448px)}24.5%{transform:translateX(-2550px)}25.5%{transform:translateX(-2856px)}25.7%{transform:translateX(-3060px)}34%{transform:translateX(-3672px)}52.1%{transform:translateX(-3774px)}53.1%{transform:translateX(-3876px)}54.2%{transform:translateX(-3978px)}54.8%{transform:translateX(-4080px)}55.9%{transform:translateX(-4182px)}56.9%{transform:translateX(-4284px)}57.8%{transform:translateX(-4386px)}58.5%{transform:translateX(-4488px)}61.5%{transform:translateX(-4998px)}71.3%{transform:translateX(-5406px)}79.8%{transform:translateX(-5610px)}86.6%{transform:translateX(-5916px)}87.6%{transform:translateX(-6018px)}87.7%{transform:translateX(-6222px)}89%{transform:translateX(-6426px)}to{transform:translateX(-6528px)}}.a{fill:#282d35}.f,.g,.h{fill:#d290e4;white-space:pre}.g,.h{fill:#b9c0cb}.h{fill:#dbab79}.i{fill:#66c2cd;font-weight:700}.i,.j,.k,.l,.m{white-space:pre}.j{fill:#b9c0cb;font-weight:700}.k,.l,.m{fill:#b9bfca}.l,.m{fill:#66c2cd}.m{fill:#a8cc8c}</style><g font-family="Monaco,Consolas,Menlo,'Bitstream Vera Sans Mono','Powerline Symbols',monospace" font-size="1.67"><defs><symbol id="14"><text y="1.67" class="k">e</text><text x="2.004" y="1.67" class="k">help]</text></symbol><symbol id="1"><text y="1.67" class="f">[app-init]</text></symbol><symbol id="3"><text y="1.67" class="f">[app-init]</text><text x="11.022" y="1.67" class="g">ecs-preview</text><text x="23.046" y="1.67" class="g">app</text></symbol><symbol id="4"><text y="1.67" class="f">[app-init]</text><text x="11.022" y="1.67" class="g">ecs-preview</text><text x="23.046" y="1.67" class="g">app</text><text x="27.054" y="1.67" class="g">init</text></symbol><symbol id="5"><text y="1.67" class="h">Note:</text><text x="6.012" y="1.67" class="h">It&apos;s</text><text x="11.022" y="1.67" class="h">best</text><text x="16.032" y="1.67" class="h">to</text><text x="19.038" y="1.67" class="h">run</text><text x="23.046" y="1.67" class="h">this</text><text x="28.056" y="1.67" class="h">command</text><text x="36.072" y="1.67" class="h">in</text><text x="39.078" y="1.67" class="h">the</text><text x="43.086" y="1.67" class="h">root</text><text x="48.096" y="1.67" class="h">of</text><text x="51.102" y="1.67" class="h">your</text><text x="56.112" y="1.67" class="h">workspace.</text></symbol><symbol id="6"><text y="1.67" class="i">?</text><text x="2.004" y="1.67" class="g">Which</text><text x="8.016" y="1.67" class="g">type</text><text x="13.026" y="1.67" class="g">of</text><text x="16.032" y="1.67" class="j">infrastructure</text><text x="31.062" y="1.67" class="j">pattern</text><text x="39.078" y="1.67" class="g">best</text><text x="44.088" y="1.67" class="g">represents</text><text x="55.11" y="1.67" class="g">your</text><text x="60.12" y="1.67" class="g">application?</text><text x="74.148" y="1.67" class="k">[Use</text><text x="79.158" y="1.67" class="k">arrows</text><text x="86.172" y="1.67" class="k">to</text><text x="89.178" y="1.67" class="k">move,</text><text x="95.19" y="1.67" class="k">type</text><text x="100.2" y="1.67" class="k">to</text></symbol><symbol id="7"><text x="1.002" y="1.67" class="k">filter,</text><text x="9.018" y="1.67" class="k">?</text><text x="11.022" y="1.67" class="k">for</text><text x="15.03" y="1.67" class="k">more</text><text x="20.04" y="1.67" class="k">help]</text></symbol><symbol id="8"><text y="1.67" class="i">&gt;</text><text x="2.004" y="1.67" class="i">Load</text><text x="7.014" y="1.67" class="i">Balanced</text><text x="16.032" y="1.67" class="i">Web</text><text x="20.04" y="1.67" class="i">App</text></symbol><symbol id="9"><text y="1.67" class="i">?</text><text x="2.004" y="1.67" class="g">Which</text><text x="8.016" y="1.67" class="g">type</text><text x="13.026" y="1.67" class="g">of</text><text x="16.032" y="1.67" class="j">infrastructure</text><text x="31.062" y="1.67" class="j">pattern</text><text x="39.078" y="1.67" class="g">best</text><text x="44.088" y="1.67" class="g">represents</text><text x="55.11" y="1.67" class="g">your</text><text x="60.12" y="1.67" class="g">application?</text><text x="73.146" y="1.67" class="l">Load</text><text x="78.156" y="1.67" class="l">Balanced</text><text x="87.174" y="1.67" class="l">Web</text><text x="91.182" y="1.67" class="l">App</text></symbol><symbol id="10"><text y="1.67" class="i">?</text><text x="2.004" y="1.67" class="g">What</text><text x="7.014" y="1.67" class="g">do</text><text x="10.02" y="1.67" class="g">you</text><text x="14.028" y="1.67" class="g">want</text><text x="19.038" y="1.67" class="g">to</text><text x="22.044" y="1.67" class="j">name</text><text x="27.054" y="1.67" class="g">this</text><text x="32.064" y="1.67" class="l">Load</text><text x="37.074" y="1.67" class="l">Balanced</text><text x="46.092" y="1.67" class="l">Web</text><text x="50.1" y="1.67" class="l">App</text><text x="53.106" y="1.67" class="g">?</text><text x="55.11" y="1.67" class="k">[?</text><text x="58.116" y="1.67" class="k">for</text><text x="62.124" y="1.67" class="k">help]</text></symbol><symbol id="11"><text y="1.67" class="i">?</text><text x="2.004" y="1.67" class="g">What</text><text x="7.014" y="1.67" class="g">do</text><text x="10.02" y="1.67" class="g">you</text><text x="14.028" y="1.67" class="g">want</text><text x="19.038" y="1.67" class="g">to</text><text x="22.044" y="1.67" class="j">name</text><text x="27.054" y="1.67" class="g">this</text><text x="32.064" y="1.67" class="l">Load</text><text x="37.074" y="1.67" class="l">Balanced</text><text x="46.092" y="1.67" class="l">Web</text><text x="50.1" y="1.67" class="l">App</text><text x="53.106" y="1.67" class="g">?</text><text x="55.11" y="1.67" class="k">[?</text><text x="58.116" y="1.67" class="k">for</text><text x="62.124" y="1.67" class="k">help]</text><text x="68.136" y="1.67" class="g">back-end</text></symbol><symbol id="12"><text y="1.67" class="i">?</text><text x="2.004" y="1.67" class="g">What</text><text x="7.014" y="1.67" class="g">do</text><text x="10.02" y="1.67" class="g">you</text><text x="14.028" y="1.67" class="g">want</text><text x="19.038" y="1.67" class="g">to</text><text x="22.044" y="1.67" class="j">name</text><text x="27.054" y="1.67" class="g">this</text><text x="32.064" y="1.67" class="l">Load</text><text x="37.074" y="1.67" class="l">Balanced</text><text x="46.092" y="1.67" class="l">Web</text><text x="50.1" y="1.67" class="l">App</text><text x="53.106" y="1.67" class="g">?</text><text x="55.11" y="1.67" class="l">back-end</text></symbol><symbol id="13"><text y="1.67" class="i">?</text><text x="2.004" y="1.67" class="g">Which</text><text x="8.016" y="1.67" class="g">Dockerfile</text><text x="19.038" y="1.67" class="g">would</text><text x="25.05" y="1.67" class="g">you</text><text x="29.058" y="1.67" class="g">like</text><text x="34.068" y="1.67" class="g">to</text><text x="37.074" y="1.67" class="g">use</text><text x="41.082" y="1.67" class="g">for</text><text x="45.09" y="1.67" class="l">back-end</text><text x="53.106" y="1.67" class="g">?</text><text x="56.112" y="1.67" class="k">[Use</text><text x="61.122" y="1.67" class="k">arrows</text><text x="68.136" y="1.67" class="k">to</text><text x="71.142" y="1.67" class="k">move,</text><text x="77.154" y="1.67" class="k">type</text><text x="82.164" y="1.67" class="k">to</text><text x="85.17" y="1.67" class="k">filter,</text><text x="93.186" y="1.67" class="k">?</text><text x="95.19" y="1.67" class="k">for</text><text x="99.198" y="1.67" class="k">mor</text></symbol><symbol id="2"><text y="1.67" class="f">[app-init]</text><text x="11.022" y="1.67" class="g">ecs-preview</text></symbol><symbol id="15"><text y="1.67" class="i">&gt;</text><text x="2.004" y="1.67" class="i">./Dockerfile</text></symbol><symbol id="16"><text y="1.67" class="i">?</text><text x="2.004" y="1.67" class="g">Which</text><text x="8.016" y="1.67" class="g">Dockerfile</text><text x="19.038" y="1.67" class="g">would</text><text x="25.05" y="1.67" class="g">you</text><text x="29.058" y="1.67" class="g">like</text><text x="34.068" y="1.67" class="g">to</text><text x="37.074" y="1.67" class="g">use</text><text x="41.082" y="1.67" class="g">for</text><text x="45.09" y="1.67" class="l">back-end</text><text x="53.106" y="1.67" class="g">?</text><text x="55.11" y="1.67" class="l">./Dockerfile</text></symbol><symbol id="17"><text y="1.67" class="i">?</text><text x="2.004" y="1.67" class="g">What</text><text x="7.014" y="1.67" class="g">port</text><text x="12.024" y="1.67" class="g">do</text><text x="15.03" y="1.67" class="g">you</text><text x="19.038" y="1.67" class="g">want</text><text x="24.048" y="1.67" class="g">requests</text><text x="33.066" y="1.67" class="g">from</text><text x="38.076" y="1.67" class="g">your</text><text x="43.086" y="1.67" class="g">load</text><text x="48.096" y="1.67" class="g">balancer</text><text x="57.114" y="1.67" class="g">forwarded</text><text x="67.134" y="1.67" class="g">to?</text><text x="71.142" y="1.67" class="k">[?</text><text x="74.148" y="1.67" class="k">for</text><text x="78.156" y="1.67" class="k">help]</text><text x="84.168" y="1.67" class="l">(80)</text></symbol><symbol id="18"><text y="1.67" class="i">?</text><text x="2.004" y="1.67" class="g">What</text><text x="7.014" y="1.67" class="g">port</text><text x="12.024" y="1.67" class="g">do</text><text x="15.03" y="1.67" class="g">you</text><text x="19.038" y="1.67" class="g">want</text><text x="24.048" y="1.67" class="g">requests</text><text x="33.066" y="1.67" class="g">from</text><text x="38.076" y="1.67" class="g">your</text><text x="43.086" y="1.67" class="g">load</text><text x="48.096" y="1.67" class="g">balancer</text><text x="57.114" y="1.67" class="g">forwarded</text><text x="67.134" y="1.67" class="g">to?</text><text x="71.142" y="1.67" class="l">80</text></symbol><symbol id="19"><text y="1.67" class="m">✔</text><text x="2.004" y="1.67" class="g">Wrote</text><text x="8.016" y="1.67" class="g">the</text><text x="12.024" y="1.67" class="g">manifest</text><text x="21.042" y="1.67" class="g">for</text><text x="25.05" y="1.67" class="l">back-end</text><text x="34.068" y="1.67" class="g">app</text><text x="38.076" y="1.67" class="g">at</text><text x="41.082" y="1.67" class="l">ecs-project/back-end/manifest.yml</text></symbol><symbol id="20"><text y="1.67" class="g">Your</text><text x="5.01" y="1.67" class="g">manifest</text><text x="14.028" y="1.67" class="g">contains</text><text x="23.046" y="1.67" class="g">configurations</text><text x="38.076" y="1.67" class="g">like</text><text x="43.086" y="1.67" class="g">your</text><text x="48.096" y="1.67" class="g">container</text><text x="58.116" y="1.67" class="g">size</text><text x="63.126" y="1.67" class="g">and</text><text x="67.134" y="1.67" class="g">ports.</text></symbol><symbol id="21"><text y="1.67" class="m">✔</text><text x="2.004" y="1.67" class="g">Created</text><text x="10.02" y="1.67" class="g">ECR</text><text x="14.028" y="1.67" class="g">repositories</text><text x="27.054" y="1.67" class="g">for</text><text x="31.062" y="1.67" class="g">application</text><text x="43.086" y="1.67" class="g">back-end.</text></symbol><symbol id="22"><text y="1.67" class="g">Recommended</text><text x="12.024" y="1.67" class="g">follow-up</text><text x="22.044" y="1.67" class="g">actions:</text></symbol><symbol id="23"><text y="1.67" class="g">-</text><text x="2.004" y="1.67" class="g">Update</text><text x="9.018" y="1.67" class="g">your</text><text x="14.028" y="1.67" class="g">manifest</text><text x="23.046" y="1.67" class="l">ecs-project/back-end/manifest.yml</text><text x="57.114" y="1.67" class="g">to</text><text x="60.12" y="1.67" class="g">change</text><text x="67.134" y="1.67" class="g">the</text><text x="71.142" y="1.67" class="g">defaults.</text></symbol><symbol id="24"><text y="1.67" class="g">-</text><text x="2.004" y="1.67" class="g">Run</text><text x="6.012" y="1.67" class="l">`ecs-preview</text><text x="19.038" y="1.67" class="l">app</text><text x="23.046" y="1.67" class="l">deploy</text><text x="30.06" y="1.67" class="l">--name</text><text x="37.074" y="1.67" class="l">back-end</text><text x="46.092" y="1.67" class="l">--env</text><text x="52.104" y="1.67" class="l">test`</text><text x="58.116" y="1.67" class="g">to</text><text x="61.122" y="1.67" class="g">deploy</text><text x="68.136" y="1.67" class="g">your</text><text x="73.146" y="1.67" class="g">application</text><text x="85.17" y="1.67" class="g">to</text><text x="88.176" y="1.67" class="g">a</text><text x="90.18" y="1.67" class="g">test</text><text x="95.19" y="1.67" class="g">environ</text></symbol><symbol id="25"><text y="1.67" class="g">ment.</text></symbol><symbol id="a"><path fill="transparent" d="M0 0h102v21H0z"/></symbol><symbol id="b"><path fill="#6f7683" d="M0 0h1.102v2.171H0z"/></symbol></defs><path class="a" d="M0 0h102v45.591H0z"/><g style="animation-duration:13.896s;animation-iteration-count:infinite;animation-name:p;animation-timing-function:steps(1,end)"><svg width="6630"><svg><use xlink:href="#a"/><use xlink:href="#b" x="-.004"/></svg><svg x="102"><use xlink:href="#a"/><use xlink:href="#b" x="-.004"/></svg><svg x="204"><use xlink:href="#a"/><use xlink:href="#b" x="-.004"/></svg><svg x="306"><use xlink:href="#a"/><use xlink:href="#b" x="10.996"/><use xlink:href="#1"/></svg><svg x="408"><use xlink:href="#a"/><use xlink:href="#b" x="10.996"/><use xlink:href="#1"/></svg><svg x="510"><use xlink:href="#a"/><use xlink:href="#b" x="10.996"/><use xlink:href="#1"/></svg><svg x="612"><use xlink:href="#a"/><use xlink:href="#b" x="11.996"/><text y="1.67" class="f">[app-init]</text><text x="11.022" y="1.67" class="g">e</text></svg><svg x="714"><use xlink:href="#a"/><use xlink:href="#b" x="12.996"/><text y="1.67" class="f">[app-init]</text><text x="11.022" y="1.67" class="g">ec</text></svg><svg x="816"><use xlink:href="#a"/><use xlink:href="#b" x="13.996"/><text y="1.67" class="f">[app-init]</text><text x="11.022" y="1.67" class="g">ecs</text></svg><svg x="918"><use xlink:href="#a"/><use xlink:href="#b" x="14.996"/><text y="1.67" class="f">[app-init]</text><text x="11.022" y="1.67" class="g">ecs-</text></svg><svg x="1020"><use xlink:href="#a"/><use xlink:href="#b" x="15.996"/><text y="1.67" class="f">[app-init]</text><text x="11.022" y="1.67" class="g">ecs-p</text></svg><svg x="1122"><use xlink:href="#a"/><use xlink:href="#b" x="16.996"/><text y="1.67" class="f">[app-init]</text><text x="11.022" y="1.67" class="g">ecs-pr</text></svg><svg x="1224"><use xlink:href="#a"/><use xlink:href="#b" x="17.996"/><text y="1.67" class="f">[app-init]</text><text x="11.022" y="1.67" class="g">ecs-pre</text></svg><svg x="1326"><use xlink:href="#a"/><use xlink:href="#b" x="18.996"/><text y="1.67" class="f">[app-init]</text><text x="11.022" y="1.67" class="g">ecs-prev</text></svg><svg x="1428"><use xlink:href="#a"/><use xlink:href="#b" x="19.996"/><text y="1.67" class="f">[app-init]</text><text x="11.022" y="1.67" class="g">ecs-previ</text></svg><svg x="1530"><use xlink:href="#a"/><use xlink:href="#b" x="20.996"/><text y="1.67" class="f">[app-init]</text><text x="11.022" y="1.67" class="g">ecs-previe</text></svg><svg x="1632"><use xlink:href="#a"/><use xlink:href="#b" x="21.996"/><use xlink:href="#2"/></svg><svg x="1734"><use xlink:href="#a"/><use xlink:href="#b" x="22.996"/><use xlink:href="#2"/></svg><svg x="1836"><use xlink:href="#a"/><use xlink:href="#b" x="23.996"/><text y="1.67" class="f">[app-init]</text><text x="11.022" y="1.67" class="g">ecs-preview</text><text x="23.046" y="1.67" class="g">a</text></svg><svg x="1938"><use xlink:href="#a"/><use xlink:href="#b" x="24.996"/><text y="1.67" class="f">[app-init]</text><text x="11.022" y="1.67" class="g">ecs-preview</text><text x="23.046" y="1.67" class="g">ap</text></svg><svg x="2040"><use xlink:href="#a"/><use xlink:href="#b" x="25.996"/><use xlink:href="#3"/></svg><svg x="2142"><use xlink:href="#a"/><use xlink:href="#b" x="26.996"/><use xlink:href="#3"/></svg><svg x="2244"><use xlink:href="#a"/><use xlink:href="#b" x="27.996"/><text y="1.67" class="f">[app-init]</text><text x="11.022" y="1.67" class="g">ecs-preview</text><text x="23.046" y="1.67" class="g">app</text><text x="27.054" y="1.67" class="g">i</text></svg><svg x="2346"><use xlink:href="#a"/><use xlink:href="#b" x="28.996"/><text y="1.67" class="f">[app-init]</text><text x="11.022" y="1.67" class="g">ecs-preview</text><text x="23.046" y="1.67" class="g">app</text><text x="27.054" y="1.67" class="g">in</text></svg><svg x="2448"><use xlink:href="#a"/><use xlink:href="#b" x="29.996"/><text y="1.67" class="f">[app-init]</text><text x="11.022" y="1.67" class="g">ecs-preview</text><text x="23.046" y="1.67" class="g">app</text><text x="27.054" y="1.67" class="g">ini</text></svg><svg x="2550"><use xlink:href="#a"/><use xlink:href="#b" x="30.996"/><use xlink:href="#4"/></svg><svg x="2652"><use xlink:href="#a"/><use xlink:href="#b" x="30.996"/><use xlink:href="#4"/></svg><svg x="2754"><use xlink:href="#a"/><use xlink:href="#b" x="-.004" y="2.146"/><use xlink:href="#4"/></svg><svg x="2856"><use xlink:href="#a"/><use xlink:href="#b" x="-.004" y="2.146"/><use xlink:href="#4"/></svg><svg x="2958"><use xlink:href="#a"/><use xlink:href="#b" x="-.004" y="4.317"/><use xlink:href="#4"/><use xlink:href="#5" y="2.171"/></svg><svg x="3060"><use xlink:href="#a"/><use xlink:href="#4"/><use xlink:href="#5" y="2.171"/><use xlink:href="#6" y="6.513"/><use xlink:href="#7" y="8.684"/><use xlink:href="#8" y="10.855"/></svg><svg x="3162"><use xlink:href="#a"/><use xlink:href="#b" x="-.004" y="13.001"/><use xlink:href="#4"/><use xlink:href="#5" y="2.171"/><use xlink:href="#6" y="6.513"/><use xlink:href="#7" y="8.684"/><use xlink:href="#8" y="10.855"/></svg><svg x="3264"><use xlink:href="#a"/><use xlink:href="#b" x="-.004" y="6.488"/><use xlink:href="#4"/><use xlink:href="#5" y="2.171"/></svg><svg x="3366"><use xlink:href="#a"/><use xlink:href="#b" x="-.004" y="10.83"/><use xlink:href="#4"/><use xlink:href="#5" y="2.171"/><use xlink:href="#9" y="8.684"/></svg><svg x="3468"><use xlink:href="#a"/><use xlink:href="#b" x="67.996" y="13.001"/><use xlink:href="#4"/><use xlink:href="#5" y="2.171"/><use xlink:href="#9" y="8.684"/><use xlink:href="#10" y="13.026"/></svg><svg x="3570"><use xlink:href="#a"/><use xlink:href="#4"/><use xlink:href="#5" y="2.171"/><use xlink:href="#9" y="8.684"/><use xlink:href="#10" y="13.026"/></svg><svg x="3672"><use xlink:href="#a"/><use xlink:href="#b" x="67.996" y="13.001"/><use xlink:href="#4"/><use xlink:href="#5" y="2.171"/><use xlink:href="#9" y="8.684"/><use xlink:href="#10" y="13.026"/></svg><svg x="3774"><use xlink:href="#a"/><use xlink:href="#b" x="68.996" y="13.001"/><use xlink:href="#4"/><use xlink:href="#5" y="2.171"/><use xlink:href="#9" y="8.684"/><text y="14.696" class="i">?</text><text x="2.004" y="14.696" class="g">What</text><text x="7.014" y="14.696" class="g">do</text><text x="10.02" y="14.696" class="g">you</text><text x="14.028" y="14.696" class="g">want</text><text x="19.038" y="14.696" class="g">to</text><text x="22.044" y="14.696" class="j">name</text><text x="27.054" y="14.696" class="g">this</text><text x="32.064" y="14.696" class="l">Load</text><text x="37.074" y="14.696" class="l">Balanced</text><text x="46.092" y="14.696" class="l">Web</text><text x="50.1" y="14.696" class="l">App</text><text x="53.106" y="14.696" class="g">?</text><text x="55.11" y="14.696" class="k">[?</text><text x="58.116" y="14.696" class="k">for</text><text x="62.124" y="14.696" class="k">help]</text><text x="68.136" y="14.696" class="g">b</text></svg><svg x="3876"><use xlink:href="#a"/><use xlink:href="#b" x="69.996" y="13.001"/><use xlink:href="#4"/><use xlink:href="#5" y="2.171"/><use xlink:href="#9" y="8.684"/><text y="14.696" class="i">?</text><text x="2.004" y="14.696" class="g">What</text><text x="7.014" y="14.696" class="g">do</text><text x="10.02" y="14.696" class="g">you</text><text x="14.028" y="14.696" class="g">want</text><text x="19.038" y="14.696" class="g">to</text><text x="22.044" y="14.696" class="j">name</text><text x="27.054" y="14.696" class="g">this</text><text x="32.064" y="14.696" class="l">Load</text><text x="37.074" y="14.696" class="l">Balanced</text><text x="46.092" y="14.696" class="l">Web</text><text x="50.1" y="14.696" class="l">App</text><text x="53.106" y="14.696" class="g">?</text><text x="55.11" y="14.696" class="k">[?</text><text x="58.116" y="14.696" class="k">for</text><text x="62.124" y="14.696" class="k">help]</text><text x="68.136" y="14.696" class="g">ba</text></svg><svg x="3978"><use xlink:href="#a"/><use xlink:href="#b" x="70.996" y="13.001"/><use xlink:href="#4"/><use xlink:href="#5" y="2.171"/><use xlink:href="#9" y="8.684"/><text y="14.696" class="i">?</text><text x="2.004" y="14.696" class="g">What</text><text x="7.014" y="14.696" class="g">do</text><text x="10.02" y="14.696" class="g">you</text><text x="14.028" y="14.696" class="g">want</text><text x="19.038" y="14.696" class="g">to</text><text x="22.044" y="14.696" class="j">name</text><text x="27.054" y="14.696" class="g">this</text><text x="32.064" y="14.696" class="l">Load</text><text x="37.074" y="14.696" class="l">Balanced</text><text x="46.092" y="14.696" class="l">Web</text><text x="50.1" y="14.696" class="l">App</text><text x="53.106" y="14.696" class="g">?</text><text x="55.11" y="14.696" class="k">[?</text><text x="58.116" y="14.696" class="k">for</text><text x="62.124" y="14.696" class="k">help]</text><text x="68.136" y="14.696" class="g">bac</text></svg><svg x="4080"><use xlink:href="#a"/><use xlink:href="#b" x="71.996" y="13.001"/><use xlink:href="#4"/><use xlink:href="#5" y="2.171"/><use xlink:href="#9" y="8.684"/><text y="14.696" class="i">?</text><text x="2.004" y="14.696" class="g">What</text><text x="7.014" y="14.696" class="g">do</text><text x="10.02" y="14.696" class="g">you</text><text x="14.028" y="14.696" class="g">want</text><text x="19.038" y="14.696" class="g">to</text><text x="22.044" y="14.696" class="j">name</text><text x="27.054" y="14.696" class="g">this</text><text x="32.064" y="14.696" class="l">Load</text><text x="37.074" y="14.696" class="l">Balanced</text><text x="46.092" y="14.696" class="l">Web</text><text x="50.1" y="14.696" class="l">App</text><text x="53.106" y="14.696" class="g">?</text><text x="55.11" y="14.696" class="k">[?</text><text x="58.116" y="14.696" class="k">for</text><text x="62.124" y="14.696" class="k">help]</text><text x="68.136" y="14.696" class="g">back</text></svg><svg x="4182"><use xlink:href="#a"/><use xlink:href="#b" x="72.996" y="13.001"/><use xlink:href="#4"/><use xlink:href="#5" y="2.171"/><use xlink:href="#9" y="8.684"/><text y="14.696" class="i">?</text><text x="2.004" y="14.696" class="g">What</text><text x="7.014" y="14.696" class="g">do</text><text x="10.02" y="14.696" class="g">you</text><text x="14.028" y="14.696" class="g">want</text><text x="19.038" y="14.696" class="g">to</text><text x="22.044" y="14.696" class="j">name</text><text x="27.054" y="14.696" class="g">this</text><text x="32.064" y="14.696" class="l">Load</text><text x="37.074" y="14.696" class="l">Balanced</text><text x="46.092" y="14.696" class="l">Web</text><text x="50.1" y="14.696" class="l">App</text><text x="53.106" y="14.696" class="g">?</text><text x="55.11" y="14.696" class="k">[?</text><text x="58.116" y="14.696" class="k">for</text><text x="62.124" y="14.696" class="k">help]</text><text x="68.136" y="14.696" class="g">back-</text></svg><svg x="4284"><use xlink:href="#a"/><use xlink:href="#b" x="73.996" y="13.001"/><use xlink:href="#4"/><use xlink:href="#5" y="2.171"/><use xlink:href="#9" y="8.684"/><text y="14.696" class="i">?</text><text x="2.004" y="14.696" class="g">What</text><text x="7.014" y="14.696" class="g">do</text><text x="10.02" y="14.696" class="g">you</text><text x="14.028" y="14.696" class="g">want</text><text x="19.038" y="14.696" class="g">to</text><text x="22.044" y="14.696" class="j">name</text><text x="27.054" y="14.696" class="g">this</text><text x="32.064" y="14.696" class="l">Load</text><text x="37.074" y="14.696" class="l">Balanced</text><text x="46.092" y="14.696" class="l">Web</text><text x="50.1" y="14.696" class="l">App</text><text x="53.106" y="14.696" class="g">?</text><text x="55.11" y="14.696" class="k">[?</text><text x="58.116" y="14.696" class="k">for</text><text x="62.124" y="14.696" class="k">help]</text><text x="68.136" y="14.696" class="g">back-e</text></svg><svg x="4386"><use xlink:href="#a"/><use xlink:href="#b" x="74.996" y="13.001"/><use xlink:href="#4"/><use xlink:href="#5" y="2.171"/><use xlink:href="#9" y="8.684"/><text y="14.696" class="i">?</text><text x="2.004" y="14.696" class="g">What</text><text x="7.014" y="14.696" class="g">do</text><text x="10.02" y="14.696" class="g">you</text><text x="14.028" y="14.696" class="g">want</text><text x="19.038" y="14.696" class="g">to</text><text x="22.044" y="14.696" class="j">name</text><text x="27.054" y="14.696" class="g">this</text><text x="32.064" y="14.696" class="l">Load</text><text x="37.074" y="14.696" class="l">Balanced</text><text x="46.092" y="14.696" class="l">Web</text><text x="50.1" y="14.696" class="l">App</text><text x="53.106" y="14.696" class="g">?</text><text x="55.11" y="14.696" class="k">[?</text><text x="58.116" y="14.696" class="k">for</text><text x="62.124" y="14.696" class="k">help]</text><text x="68.136" y="14.696" class="g">back-en</text></svg><svg x="4488"><use xlink:href="#a"/><use xlink:href="#b" x="75.996" y="13.001"/><use xlink:href="#4"/><use xlink:href="#5" y="2.171"/><use xlink:href="#9" y="8.684"/><use xlink:href="#11" y="13.026"/></svg><svg x="4590"><use xlink:href="#a"/><use xlink:href="#b" x="71.996" y="13.001"/><use xlink:href="#4"/><use xlink:href="#5" y="2.171"/><use xlink:href="#9" y="8.684"/><use xlink:href="#11" y="13.026"/></svg><svg x="4692"><use xlink:href="#a"/><use xlink:href="#b" x="-.004" y="10.83"/><use xlink:href="#4"/><use xlink:href="#5" y="2.171"/><use xlink:href="#9" y="8.684"/></svg><svg x="4794"><use xlink:href="#a"/><use xlink:href="#b" x="-.004" y="15.172"/><use xlink:href="#4"/><use xlink:href="#5" y="2.171"/><use xlink:href="#9" y="8.684"/><use xlink:href="#12" y="13.026"/></svg><svg x="4896"><use xlink:href="#a"/><use xlink:href="#b" x="-.004" y="15.172"/><use xlink:href="#4"/><use xlink:href="#5" y="2.171"/><use xlink:href="#9" y="8.684"/><use xlink:href="#12" y="13.026"/></svg><svg x="4998"><use xlink:href="#a"/><use xlink:href="#4"/><use xlink:href="#5" y="2.171"/><use xlink:href="#9" y="8.684"/><use xlink:href="#12" y="13.026"/><use xlink:href="#13" y="17.368"/><use xlink:href="#14" y="19.539"/><use xlink:href="#15" y="21.71"/></svg><svg x="5100"><use xlink:href="#a"/><use xlink:href="#b" x="-.004" y="23.856"/><use xlink:href="#4"/><use xlink:href="#5" y="2.171"/><use xlink:href="#9" y="8.684"/><use xlink:href="#12" y="13.026"/><use xlink:href="#13" y="17.368"/><use xlink:href="#14" y="19.539"/><use xlink:href="#15" y="21.71"/></svg><svg x="5202"><use xlink:href="#a"/><use xlink:href="#b" x="88.996" y="23.856"/><use xlink:href="#4"/><use xlink:href="#5" y="2.171"/><use xlink:href="#9" y="8.684"/><use xlink:href="#12" y="13.026"/><use xlink:href="#16" y="19.539"/><use xlink:href="#17" y="23.881"/></svg><svg x="5304"><use xlink:href="#a"/><use xlink:href="#4"/><use xlink:href="#5" y="2.171"/><use xlink:href="#9" y="8.684"/><use xlink:href="#12" y="13.026"/><use xlink:href="#16" y="19.539"/><use xlink:href="#17" y="23.881"/></svg><svg x="5406"><use xlink:href="#a"/><use xlink:href="#b" x="88.996" y="23.856"/><use xlink:href="#4"/><use xlink:href="#5" y="2.171"/><use xlink:href="#9" y="8.684"/><use xlink:href="#12" y="13.026"/><use xlink:href="#16" y="19.539"/><use xlink:href="#17" y="23.881"/></svg><svg x="5508"><use xlink:href="#a"/><use xlink:href="#b" x="-.004" y="23.856"/><use xlink:href="#4"/><use xlink:href="#5" y="2.171"/><use xlink:href="#9" y="8.684"/><use xlink:href="#12" y="13.026"/><use xlink:href="#16" y="19.539"/><use xlink:href="#17" y="23.881"/></svg><svg x="5610"><use xlink:href="#a"/><use xlink:href="#b" x="-.004" y="26.027"/><use xlink:href="#4"/><use xlink:href="#5" y="2.171"/><use xlink:href="#9" y="8.684"/><use xlink:href="#12" y="13.026"/><use xlink:href="#16" y="19.539"/><use xlink:href="#18" y="23.881"/></svg><svg x="5712"><use xlink:href="#a"/><use xlink:href="#b" x="-.004" y="34.711"/><use xlink:href="#4"/><use xlink:href="#5" y="2.171"/><use xlink:href="#9" y="8.684"/><use xlink:href="#12" y="13.026"/><use xlink:href="#16" y="19.539"/><use xlink:href="#18" y="23.881"/><use xlink:href="#19" y="28.223"/><use xlink:href="#20" y="30.394"/></svg><svg x="5814"><use xlink:href="#a"/><use xlink:href="#4"/><use xlink:href="#5" y="2.171"/><use xlink:href="#9" y="8.684"/><use xlink:href="#12" y="13.026"/><use xlink:href="#16" y="19.539"/><use xlink:href="#18" y="23.881"/><use xlink:href="#19" y="28.223"/><use xlink:href="#20" y="30.394"/></svg><svg x="5916"><use xlink:href="#a"/><use xlink:href="#4"/><use xlink:href="#5" y="2.171"/><use xlink:href="#9" y="8.684"/><use xlink:href="#12" y="13.026"/><use xlink:href="#16" y="19.539"/><use xlink:href="#18" y="23.881"/><use xlink:href="#19" y="28.223"/><use xlink:href="#20" y="30.394"/><use xlink:href="#21" y="34.736"/></svg><svg x="6018"><use xlink:href="#a"/><use xlink:href="#5"/><use xlink:href="#9" y="6.513"/><use xlink:href="#12" y="10.855"/><use xlink:href="#16" y="17.368"/><use xlink:href="#18" y="21.71"/><use xlink:href="#19" y="26.052"/><use xlink:href="#20" y="28.223"/><use xlink:href="#21" y="32.565"/><use xlink:href="#22" y="34.736"/><use xlink:href="#23" y="36.907"/><use xlink:href="#24" y="39.078"/><use xlink:href="#25" y="41.249"/></svg><svg x="6120"><use xlink:href="#a"/><use xlink:href="#5"/><use xlink:href="#9" y="6.513"/><use xlink:href="#12" y="10.855"/><use xlink:href="#16" y="17.368"/><use xlink:href="#18" y="21.71"/><use xlink:href="#19" y="26.052"/><use xlink:href="#20" y="28.223"/><use xlink:href="#21" y="32.565"/><use xlink:href="#22" y="34.736"/><use xlink:href="#23" y="36.907"/><use xlink:href="#24" y="39.078"/><use xlink:href="#25" y="41.249"/></svg><svg x="6222"><use xlink:href="#a"/><use xlink:href="#5"/><use xlink:href="#9" y="6.513"/><use xlink:href="#12" y="10.855"/><use xlink:href="#16" y="17.368"/><use xlink:href="#18" y="21.71"/><use xlink:href="#19" y="26.052"/><use xlink:href="#20" y="28.223"/><use xlink:href="#21" y="32.565"/><use xlink:href="#22" y="34.736"/><use xlink:href="#23" y="36.907"/><use xlink:href="#24" y="39.078"/><use xlink:href="#25" y="41.249"/></svg><svg x="6324"><use xlink:href="#a"/><use xlink:href="#5"/><use xlink:href="#9" y="6.513"/><use xlink:href="#12" y="10.855"/><use xlink:href="#16" y="17.368"/><use xlink:href="#18" y="21.71"/><use xlink:href="#19" y="26.052"/><use xlink:href="#20" y="28.223"/><use xlink:href="#21" y="32.565"/><use xlink:href="#22" y="34.736"/><use xlink:href="#23" y="36.907"/><use xlink:href="#24" y="39.078"/><use xlink:href="#25" y="41.249"/><use xlink:href="#1" y="43.42"/></svg><svg x="6426"><use xlink:href="#a"/><use xlink:href="#5"/><use xlink:href="#9" y="6.513"/><use xlink:href="#12" y="10.855"/><use xlink:href="#16" y="17.368"/><use xlink:href="#18" y="21.71"/><use xlink:href="#19" y="26.052"/><use xlink:href="#20" y="28.223"/><use xlink:href="#21" y="32.565"/><use xlink:href="#22" y="34.736"/><use xlink:href="#23" y="36.907"/><use xlink:href="#24" y="39.078"/><use xlink:href="#25" y="41.249"/><use xlink:href="#1" y="43.42"/></svg><svg x="6528"><use xlink:href="#a"/><use xlink:href="#9" y="4.342"/><use xlink:href="#12" y="8.684"/><use xlink:href="#16" y="15.197"/><use xlink:href="#18" y="19.539"/><use xlink:href="#19" y="23.881"/><use xlink:href="#20" y="26.052"/><use xlink:href="#21" y="30.394"/><use xlink:href="#22" y="32.565"/><use xlink:href="#23" y="34.736"/><use xlink:href="#24" y="36.907"/><use xlink:href="#25" y="39.078"/><use xlink:href="#1" y="41.249"/></svg></svg></g></g></svg></svg>