<svg xmlns="http://www.w3.org/2000/svg" xmlns:xlink="http://www.w3.org/1999/xlink" width="1110" height="537.62"><rect width="1110" height="537.62" rx="5" ry="5" class="a"/><svg y="0%" x="0%"><circle cx="20" cy="20" r="6" fill="#ff5f58"/><circle cx="40" cy="20" r="6" fill="#ffbd2e"/><circle cx="60" cy="20" r="6" fill="#18c132"/></svg><svg height="477.62" viewBox="0 0 107 47.762" width="1070" x="15" xmlns="http://www.w3.org/2000/svg" xmlns:xlink="http://www.w3.org/1999/xlink" y="50"><style>@keyframes l{0%{transform:translateX(0)}5.6%{transform:translateX(-107px)}9.4%{transform:translateX(-428px)}13.7%{transform:translateX(-535px)}15.7%{transform:translateX(-642px)}16.3%{transform:translateX(-749px)}18.1%{transform:translateX(-856px)}20.6%{transform:translateX(-963px)}22.3%{transform:translateX(-1070px)}22.8%{transform:translateX(-1177px)}25.2%{transform:translateX(-1284px)}26.3%{transform:translateX(-1391px)}27.7%{transform:translateX(-1498px)}28.1%{transform:translateX(-1605px)}29.8%{transform:translateX(-1712px)}31.6%{transform:translateX(-1819px)}33%{transform:translateX(-1926px)}35%{transform:translateX(-2033px)}40.4%{transform:translateX(-2140px)}42.1%{transform:translateX(-2247px)}44.2%{transform:translateX(-2354px)}45.4%{transform:translateX(-2461px)}46%{transform:translateX(-2568px)}53.1%{transform:translateX(-2889px)}65.1%{transform:translateX(-2996px)}66.1%{transform:translateX(-3210px)}66.2%{transform:translateX(-3424px)}68.1%{transform:translateX(-3638px)}to{transform:translateX(-3745px)}}.a{fill:#282d35}.f,.g,.h,.i{fill:#d290e4;white-space:pre}.g,.h,.i{fill:#b9c0cb}.h,.i{fill:#66c2cd}.i{fill:#b9bfca}</style><g font-family="Monaco,Consolas,Menlo,'Bitstream Vera Sans Mono','Powerline Symbols',monospace" font-size="1.67"><defs><symbol id="9"><text y="1.67" class="i">3229bb8</text><text x="8.016" y="1.67" class="g">2020/03/19</text><text x="19.038" y="1.67" class="g">01:44:32</text><text x="28.056" y="1.67" class="g">🚑</text><text x="31.062" y="1.67" class="g">healthcheck</text><text x="43.086" y="1.67" class="g">ok!</text></symbol><symbol id="1"><text y="1.67" class="f">[app-logs]</text></symbol><symbol id="3"><text y="1.67" class="f">[app-logs]</text><text x="11.022" y="1.67" class="g">ecs-preview</text><text x="23.046" y="1.67" class="g">app</text></symbol><symbol id="4"><text y="1.67" class="f">[app-logs]</text><text x="11.022" y="1.67" class="g">ecs-preview</text><text x="23.046" y="1.67" class="g">app</text><text x="27.054" y="1.67" class="g">logs</text></symbol><symbol id="5"><text y="1.67" class="g">Only</text><text x="5.01" y="1.67" class="g">found</text><text x="11.022" y="1.67" class="g">one</text><text x="15.03" y="1.67" class="g">deployed</text><text x="24.048" y="1.67" class="g">app,</text><text x="29.058" y="1.67" class="g">defaulting</text><text x="40.08" y="1.67" class="g">to:</text><text x="44.088" y="1.67" class="h">front-end</text><text x="54.108" y="1.67" class="h">(test)</text></symbol><symbol id="6"><text y="1.67" class="i">3229bb8</text><text x="8.016" y="1.67" class="g">2020/03/19</text><text x="19.038" y="1.67" class="g">01:44:21</text><text x="28.056" y="1.67" class="g">🚑</text><text x="31.062" y="1.67" class="g">healthcheck</text><text x="43.086" y="1.67" class="g">ok!</text></symbol><symbol id="7"><text y="1.67" class="i">3229bb8</text><text x="8.016" y="1.67" class="g">2020/03/19</text><text x="19.038" y="1.67" class="g">01:44:22</text><text x="28.056" y="1.67" class="g">🚑</text><text x="31.062" y="1.67" class="g">healthcheck</text><text x="43.086" y="1.67" class="g">ok!</text></symbol><symbol id="8"><text y="1.67" class="i">3229bb8</text><text x="8.016" y="1.67" class="g">2020/03/19</text><text x="19.038" y="1.67" class="g">01:44:31</text><text x="28.056" y="1.67" class="g">🚑</text><text x="31.062" y="1.67" class="g">healthcheck</text><text x="43.086" y="1.67" class="g">ok!</text></symbol><symbol id="2"><text y="1.67" class="f">[app-logs]</text><text x="11.022" y="1.67" class="g">ecs-preview</text></symbol><symbol id="10"><text y="1.67" class="i">3229bb8</text><text x="8.016" y="1.67" class="g">2020/03/19</text><text x="19.038" y="1.67" class="g">01:44:41</text><text x="28.056" y="1.67" class="g">🚑</text><text x="31.062" y="1.67" class="g">healthcheck</text><text x="43.086" y="1.67" class="g">ok!</text></symbol><symbol id="11"><text y="1.67" class="i">3229bb8</text><text x="8.016" y="1.67" class="g">2020/03/19</text><text x="19.038" y="1.67" class="g">01:44:42</text><text x="28.056" y="1.67" class="g">🚑</text><text x="31.062" y="1.67" class="g">healthcheck</text><text x="43.086" y="1.67" class="g">ok!</text></symbol><symbol id="12"><text y="1.67" class="i">3229bb8</text><text x="8.016" y="1.67" class="g">2020/03/19</text><text x="19.038" y="1.67" class="g">01:44:51</text><text x="28.056" y="1.67" class="g">🚑</text><text x="31.062" y="1.67" class="g">healthcheck</text><text x="43.086" y="1.67" class="g">ok!</text></symbol><symbol id="13"><text y="1.67" class="i">3229bb8</text><text x="8.016" y="1.67" class="g">2020/03/19</text><text x="19.038" y="1.67" class="g">01:44:52</text><text x="28.056" y="1.67" class="g">🚑</text><text x="31.062" y="1.67" class="g">healthcheck</text><text x="43.086" y="1.67" class="g">ok!</text></symbol><symbol id="14"><text y="1.67" class="i">3229bb8</text><text x="8.016" y="1.67" class="g">2020/03/19</text><text x="19.038" y="1.67" class="g">01:45:01</text><text x="28.056" y="1.67" class="g">🚑</text><text x="31.062" y="1.67" class="g">healthcheck</text><text x="43.086" y="1.67" class="g">ok!</text></symbol><symbol id="15"><text y="1.67" class="i">3229bb8</text><text x="8.016" y="1.67" class="g">2020/03/19</text><text x="19.038" y="1.67" class="g">01:45:02</text><text x="28.056" y="1.67" class="g">🚑</text><text x="31.062" y="1.67" class="g">healthcheck</text><text x="43.086" y="1.67" class="g">ok!</text></symbol><symbol id="a"><path fill="transparent" d="M0 0h107v22H0z"/></symbol><symbol id="b"><path fill="#6f7683" d="M0 0h1.102v2.171H0z"/></symbol></defs><path class="a" d="M0 0h107v47.762H0z"/><g style="animation-duration:9.880909s;animation-iteration-count:infinite;animation-name:l;animation-timing-function:steps(1,end)"><svg width="3852"><svg><use xlink:href="#a"/><use xlink:href="#b" x="-.004"/></svg><svg x="107"><use xlink:href="#a"/><use xlink:href="#b" x="-.004"/></svg><svg x="214"><use xlink:href="#a"/><use xlink:href="#b" x="10.996"/><use xlink:href="#1"/></svg><svg x="321"><use xlink:href="#a"/><use xlink:href="#b" x="10.996"/><use xlink:href="#1"/></svg><svg x="428"><use xlink:href="#a"/><use xlink:href="#b" x="10.996"/><use xlink:href="#1"/></svg><svg x="535"><use xlink:href="#a"/><use xlink:href="#b" x="11.996"/><text y="1.67" class="f">[app-logs]</text><text x="11.022" y="1.67" class="g">e</text></svg><svg x="642"><use xlink:href="#a"/><use xlink:href="#b" x="12.996"/><text y="1.67" class="f">[app-logs]</text><text x="11.022" y="1.67" class="g">ec</text></svg><svg x="749"><use xlink:href="#a"/><use xlink:href="#b" x="13.996"/><text y="1.67" class="f">[app-logs]</text><text x="11.022" y="1.67" class="g">ecs</text></svg><svg x="856"><use xlink:href="#a"/><use xlink:href="#b" x="14.996"/><text y="1.67" class="f">[app-logs]</text><text x="11.022" y="1.67" class="g">ecs-</text></svg><svg x="963"><use xlink:href="#a"/><use xlink:href="#b" x="15.996"/><text y="1.67" class="f">[app-logs]</text><text x="11.022" y="1.67" class="g">ecs-p</text></svg><svg x="1070"><use xlink:href="#a"/><use xlink:href="#b" x="16.996"/><text y="1.67" class="f">[app-logs]</text><text x="11.022" y="1.67" class="g">ecs-pr</text></svg><svg x="1177"><use xlink:href="#a"/><use xlink:href="#b" x="17.996"/><text y="1.67" class="f">[app-logs]</text><text x="11.022" y="1.67" class="g">ecs-pre</text></svg><svg x="1284"><use xlink:href="#a"/><use xlink:href="#b" x="18.996"/><text y="1.67" class="f">[app-logs]</text><text x="11.022" y="1.67" class="g">ecs-prev</text></svg><svg x="1391"><use xlink:href="#a"/><use xlink:href="#b" x="19.996"/><text y="1.67" class="f">[app-logs]</text><text x="11.022" y="1.67" class="g">ecs-previ</text></svg><svg x="1498"><use xlink:href="#a"/><use xlink:href="#b" x="20.996"/><text y="1.67" class="f">[app-logs]</text><text x="11.022" y="1.67" class="g">ecs-previe</text></svg><svg x="1605"><use xlink:href="#a"/><use xlink:href="#b" x="21.996"/><use xlink:href="#2"/></svg><svg x="1712"><use xlink:href="#a"/><use xlink:href="#b" x="22.996"/><use xlink:href="#2"/></svg><svg x="1819"><use xlink:href="#a"/><use xlink:href="#b" x="23.996"/><text y="1.67" class="f">[app-logs]</text><text x="11.022" y="1.67" class="g">ecs-preview</text><text x="23.046" y="1.67" class="g">a</text></svg><svg x="1926"><use xlink:href="#a"/><use xlink:href="#b" x="24.996"/><text y="1.67" class="f">[app-logs]</text><text x="11.022" y="1.67" class="g">ecs-preview</text><text x="23.046" y="1.67" class="g">ap</text></svg><svg x="2033"><use xlink:href="#a"/><use xlink:href="#b" x="25.996"/><use xlink:href="#3"/></svg><svg x="2140"><use xlink:href="#a"/><use xlink:href="#b" x="26.996"/><use xlink:href="#3"/></svg><svg x="2247"><use xlink:href="#a"/><use xlink:href="#b" x="27.996"/><text y="1.67" class="f">[app-logs]</text><text x="11.022" y="1.67" class="g">ecs-preview</text><text x="23.046" y="1.67" class="g">app</text><text x="27.054" y="1.67" class="g">l</text></svg><svg x="2354"><use xlink:href="#a"/><use xlink:href="#b" x="28.996"/><text y="1.67" class="f">[app-logs]</text><text x="11.022" y="1.67" class="g">ecs-preview</text><text x="23.046" y="1.67" class="g">app</text><text x="27.054" y="1.67" class="g">lo</text></svg><svg x="2461"><use xlink:href="#a"/><use xlink:href="#b" x="29.996"/><text y="1.67" class="f">[app-logs]</text><text x="11.022" y="1.67" class="g">ecs-preview</text><text x="23.046" y="1.67" class="g">app</text><text x="27.054" y="1.67" class="g">log</text></svg><svg x="2568"><use xlink:href="#a"/><use xlink:href="#b" x="30.996"/><use xlink:href="#4"/></svg><svg x="2675"><use xlink:href="#a"/><use xlink:href="#b" x="30.996"/><use xlink:href="#4"/></svg><svg x="2782"><use xlink:href="#a"/><use xlink:href="#b" x="-.004" y="2.146"/><use xlink:href="#4"/></svg><svg x="2889"><use xlink:href="#a"/><use xlink:href="#b" x="-.004" y="2.146"/><use xlink:href="#4"/></svg><svg x="2996"><use xlink:href="#a"/><use xlink:href="#b" x="-.004" y="4.317"/><use xlink:href="#4"/><use xlink:href="#5" y="2.171"/></svg><svg x="3103"><use xlink:href="#a"/><use xlink:href="#b" x="-.004" y="10.83"/><use xlink:href="#4"/><use xlink:href="#5" y="2.171"/><use xlink:href="#6" y="4.342"/><use xlink:href="#7" y="6.513"/><use xlink:href="#8" y="8.684"/></svg><svg x="3210"><use xlink:href="#a"/><use xlink:href="#b" x="-.004" y="26.027"/><use xlink:href="#4"/><use xlink:href="#5" y="2.171"/><use xlink:href="#6" y="4.342"/><use xlink:href="#7" y="6.513"/><use xlink:href="#8" y="8.684"/><use xlink:href="#9" y="10.855"/><use xlink:href="#10" y="13.026"/><use xlink:href="#11" y="15.197"/><use xlink:href="#12" y="17.368"/><use xlink:href="#13" y="19.539"/><use xlink:href="#14" y="21.71"/><use xlink:href="#15" y="23.881"/></svg><svg x="3317"><use xlink:href="#a"/><use xlink:href="#b" x="-.004" y="26.027"/><use xlink:href="#4"/><use xlink:href="#5" y="2.171"/><use xlink:href="#6" y="4.342"/><use xlink:href="#7" y="6.513"/><use xlink:href="#8" y="8.684"/><use xlink:href="#9" y="10.855"/><use xlink:href="#10" y="13.026"/><use xlink:href="#11" y="15.197"/><use xlink:href="#12" y="17.368"/><use xlink:href="#13" y="19.539"/><use xlink:href="#14" y="21.71"/><use xlink:href="#15" y="23.881"/></svg><svg x="3424"><use xlink:href="#a"/><use xlink:href="#b" x="-.004" y="26.027"/><use xlink:href="#4"/><use xlink:href="#5" y="2.171"/><use xlink:href="#6" y="4.342"/><use xlink:href="#7" y="6.513"/><use xlink:href="#8" y="8.684"/><use xlink:href="#9" y="10.855"/><use xlink:href="#10" y="13.026"/><use xlink:href="#11" y="15.197"/><use xlink:href="#12" y="17.368"/><use xlink:href="#13" y="19.539"/><use xlink:href="#14" y="21.71"/><use xlink:href="#15" y="23.881"/></svg><svg x="3531"><use xlink:href="#a"/><use xlink:href="#b" x="10.996" y="26.027"/><use xlink:href="#4"/><use xlink:href="#5" y="2.171"/><use xlink:href="#6" y="4.342"/><use xlink:href="#7" y="6.513"/><use xlink:href="#8" y="8.684"/><use xlink:href="#9" y="10.855"/><use xlink:href="#10" y="13.026"/><use xlink:href="#11" y="15.197"/><use xlink:href="#12" y="17.368"/><use xlink:href="#13" y="19.539"/><use xlink:href="#14" y="21.71"/><use xlink:href="#15" y="23.881"/><use xlink:href="#1" y="26.052"/></svg><svg x="3638"><use xlink:href="#a"/><use xlink:href="#b" x="10.996" y="26.027"/><use xlink:href="#4"/><use xlink:href="#5" y="2.171"/><use xlink:href="#6" y="4.342"/><use xlink:href="#7" y="6.513"/><use xlink:href="#8" y="8.684"/><use xlink:href="#9" y="10.855"/><use xlink:href="#10" y="13.026"/><use xlink:href="#11" y="15.197"/><use xlink:href="#12" y="17.368"/><use xlink:href="#13" y="19.539"/><use xlink:href="#14" y="21.71"/><use xlink:href="#15" y="23.881"/><use xlink:href="#1" y="26.052"/></svg><svg x="3745"><use xlink:href="#a"/><use xlink:href="#b" x="-.004" y="28.198"/><use xlink:href="#4"/><use xlink:href="#5" y="2.171"/><use xlink:href="#6" y="4.342"/><use xlink:href="#7" y="6.513"/><use xlink:href="#8" y="8.684"/><use xlink:href="#9" y="10.855"/><use xlink:href="#10" y="13.026"/><use xlink:href="#11" y="15.197"/><use xlink:href="#12" y="17.368"/><use xlink:href="#13" y="19.539"/><use xlink:href="#14" y="21.71"/><use xlink:href="#15" y="23.881"/><use xlink:href="#1" y="26.052"/></svg></svg></g></g></svg></svg>