<svg xmlns="http://www.w3.org/2000/svg" xmlns:xlink="http://www.w3.org/1999/xlink" width="620" height="342.23"><rect width="620" height="342.23" rx="5" ry="5" class="a"/><svg y="0%" x="0%"><circle cx="20" cy="20" r="6" fill="#ff5f58"/><circle cx="40" cy="20" r="6" fill="#ffbd2e"/><circle cx="60" cy="20" r="6" fill="#18c132"/></svg><svg height="282.23" viewBox="0 0 58 28.223" width="580" x="15" xmlns="http://www.w3.org/2000/svg" xmlns:xlink="http://www.w3.org/1999/xlink" y="50"><style>@keyframes j{0%{transform:translateX(0)}11.1%{transform:translateX(-116px)}16.2%{transform:translateX(-232px)}16.3%{transform:translateX(-290px)}22.5%{transform:translateX(-348px)}25.2%{transform:translateX(-406px)}25.9%{transform:translateX(-464px)}28%{transform:translateX(-522px)}31.4%{transform:translateX(-580px)}33.1%{transform:translateX(-638px)}34.2%{transform:translateX(-696px)}36.8%{transform:translateX(-754px)}38.3%{transform:translateX(-812px)}39.6%{transform:translateX(-870px)}40.4%{transform:translateX(-928px)}41.5%{transform:translateX(-986px)}43.8%{transform:translateX(-1044px)}45.3%{transform:translateX(-1102px)}47%{transform:translateX(-1160px)}48.4%{transform:translateX(-1218px)}49.6%{transform:translateX(-1276px)}51.2%{transform:translateX(-1334px)}52.7%{transform:translateX(-1392px)}52.8%{transform:translateX(-1508px)}58.4%{transform:translateX(-1682px)}60.8%{transform:translateX(-1798px)}to{transform:translateX(-1856px)}}.a{fill:#282d35}.f,.g{fill:#d290e4;white-space:pre}.g{fill:#b9c0cb}</style><g font-family="Monaco,Consolas,Menlo,'Bitstream Vera Sans Mono','Powerline Symbols',monospace" font-size="1.67"><defs><symbol id="1"><text y="1.67" class="f">[env-ls]</text></symbol><symbol id="2"><text y="1.67" class="f">[env-ls]</text><text x="9.018" y="1.67" class="g">ecs-preview</text></symbol><symbol id="3"><text y="1.67" class="f">[env-ls]</text><text x="9.018" y="1.67" class="g">ecs-preview</text><text x="21.042" y="1.67" class="g">env</text></symbol><symbol id="4"><text y="1.67" class="f">[env-ls]</text><text x="9.018" y="1.67" class="g">ecs-preview</text><text x="21.042" y="1.67" class="g">env</text><text x="25.05" y="1.67" class="g">ls</text></symbol><symbol id="5"><text y="1.67" class="g">test</text></symbol><symbol id="6"><text y="1.67" class="g">prod</text></symbol><symbol id="a"><path fill="transparent" d="M0 0h58v13H0z"/></symbol><symbol id="b"><path fill="#6f7683" d="M0 0h1.102v2.171H0z"/></symbol></defs><path class="a" d="M0 0h58v28.223H0z"/><g style="animation-duration:7.505952s;animation-iteration-count:infinite;animation-name:j;animation-timing-function:steps(1,end)"><svg width="1914"><svg><use xlink:href="#a"/><use xlink:href="#b" x="-.004"/></svg><svg x="58"><use xlink:href="#a"/><use xlink:href="#b" x="-.004"/></svg><svg x="116"><use xlink:href="#a"/><use xlink:href="#b" x="-.004"/></svg><svg x="174"><use xlink:href="#a"/><use xlink:href="#b" x="8.996"/><use xlink:href="#1"/></svg><svg x="232"><use xlink:href="#a"/><use xlink:href="#b" x="8.996"/><use xlink:href="#1"/></svg><svg x="290"><use xlink:href="#a"/><use xlink:href="#b" x="8.996"/><use xlink:href="#1"/></svg><svg x="348"><use xlink:href="#a"/><use xlink:href="#b" x="9.996"/><text y="1.67" class="f">[env-ls]</text><text x="9.018" y="1.67" class="g">e</text></svg><svg x="406"><use xlink:href="#a"/><use xlink:href="#b" x="10.996"/><text y="1.67" class="f">[env-ls]</text><text x="9.018" y="1.67" class="g">ec</text></svg><svg x="464"><use xlink:href="#a"/><use xlink:href="#b" x="11.996"/><text y="1.67" class="f">[env-ls]</text><text x="9.018" y="1.67" class="g">ecs</text></svg><svg x="522"><use xlink:href="#a"/><use xlink:href="#b" x="12.996"/><text y="1.67" class="f">[env-ls]</text><text x="9.018" y="1.67" class="g">ecs-</text></svg><svg x="580"><use xlink:href="#a"/><use xlink:href="#b" x="13.996"/><text y="1.67" class="f">[env-ls]</text><text x="9.018" y="1.67" class="g">ecs-p</text></svg><svg x="638"><use xlink:href="#a"/><use xlink:href="#b" x="14.996"/><text y="1.67" class="f">[env-ls]</text><text x="9.018" y="1.67" class="g">ecs-pr</text></svg><svg x="696"><use xlink:href="#a"/><use xlink:href="#b" x="15.996"/><text y="1.67" class="f">[env-ls]</text><text x="9.018" y="1.67" class="g">ecs-pre</text></svg><svg x="754"><use xlink:href="#a"/><use xlink:href="#b" x="16.996"/><text y="1.67" class="f">[env-ls]</text><text x="9.018" y="1.67" class="g">ecs-prev</text></svg><svg x="812"><use xlink:href="#a"/><use xlink:href="#b" x="17.996"/><text y="1.67" class="f">[env-ls]</text><text x="9.018" y="1.67" class="g">ecs-previ</text></svg><svg x="870"><use xlink:href="#a"/><use xlink:href="#b" x="18.996"/><text y="1.67" class="f">[env-ls]</text><text x="9.018" y="1.67" class="g">ecs-previe</text></svg><svg x="928"><use xlink:href="#a"/><use xlink:href="#b" x="19.996"/><use xlink:href="#2"/></svg><svg x="986"><use xlink:href="#a"/><use xlink:href="#b" x="20.996"/><use xlink:href="#2"/></svg><svg x="1044"><use xlink:href="#a"/><use xlink:href="#b" x="21.996"/><text y="1.67" class="f">[env-ls]</text><text x="9.018" y="1.67" class="g">ecs-preview</text><text x="21.042" y="1.67" class="g">e</text></svg><svg x="1102"><use xlink:href="#a"/><use xlink:href="#b" x="22.996"/><text y="1.67" class="f">[env-ls]</text><text x="9.018" y="1.67" class="g">ecs-preview</text><text x="21.042" y="1.67" class="g">en</text></svg><svg x="1160"><use xlink:href="#a"/><use xlink:href="#b" x="23.996"/><use xlink:href="#3"/></svg><svg x="1218"><use xlink:href="#a"/><use xlink:href="#b" x="24.996"/><use xlink:href="#3"/></svg><svg x="1276"><use xlink:href="#a"/><use xlink:href="#b" x="25.996"/><text y="1.67" class="f">[env-ls]</text><text x="9.018" y="1.67" class="g">ecs-preview</text><text x="21.042" y="1.67" class="g">env</text><text x="25.05" y="1.67" class="g">l</text></svg><svg x="1334"><use xlink:href="#a"/><use xlink:href="#b" x="26.996"/><use xlink:href="#4"/></svg><svg x="1392"><use xlink:href="#a"/><use xlink:href="#b" x="26.996"/><use xlink:href="#4"/></svg><svg x="1450"><use xlink:href="#a"/><use xlink:href="#b" x="-.004" y="2.146"/><use xlink:href="#4"/></svg><svg x="1508"><use xlink:href="#a"/><use xlink:href="#b" x="-.004" y="2.146"/><use xlink:href="#4"/></svg><svg x="1566"><use xlink:href="#a"/><use xlink:href="#b" x="-.004" y="6.488"/><use xlink:href="#4"/><use xlink:href="#5" y="2.171"/><use xlink:href="#6" y="4.342"/></svg><svg x="1624"><use xlink:href="#a"/><use xlink:href="#b" x="-.004" y="6.488"/><use xlink:href="#4"/><use xlink:href="#5" y="2.171"/><use xlink:href="#6" y="4.342"/></svg><svg x="1682"><use xlink:href="#a"/><use xlink:href="#b" x="-.004" y="6.488"/><use xlink:href="#4"/><use xlink:href="#5" y="2.171"/><use xlink:href="#6" y="4.342"/></svg><svg x="1740"><use xlink:href="#a"/><use xlink:href="#b" x="8.996" y="6.488"/><use xlink:href="#4"/><use xlink:href="#5" y="2.171"/><use xlink:href="#6" y="4.342"/><use xlink:href="#1" y="6.513"/></svg><svg x="1798"><use xlink:href="#a"/><use xlink:href="#b" x="8.996" y="6.488"/><use xlink:href="#4"/><use xlink:href="#5" y="2.171"/><use xlink:href="#6" y="4.342"/><use xlink:href="#1" y="6.513"/></svg><svg x="1856"><use xlink:href="#a"/><use xlink:href="#b" x="-.004" y="8.659"/><use xlink:href="#4"/><use xlink:href="#5" y="2.171"/><use xlink:href="#6" y="4.342"/><use xlink:href="#1" y="6.513"/></svg></svg></g></g></svg></svg>