<svg xmlns="http://www.w3.org/2000/svg" xmlns:xlink="http://www.w3.org/1999/xlink" width="670" height="429.07"><rect width="670" height="429.07" rx="5" ry="5" class="a"/><svg y="0%" x="0%"><circle cx="20" cy="20" r="6" fill="#ff5f58"/><circle cx="40" cy="20" r="6" fill="#ffbd2e"/><circle cx="60" cy="20" r="6" fill="#18c132"/></svg><svg height="369.07" viewBox="0 0 63 36.907" width="630" x="15" xmlns="http://www.w3.org/2000/svg" xmlns:xlink="http://www.w3.org/1999/xlink" y="50"><style>@keyframes j{0%{transform:translateX(0)}8.2%{transform:translateX(-63px)}13.2%{transform:translateX(-189px)}20.5%{transform:translateX(-252px)}24.5%{transform:translateX(-315px)}25%{transform:translateX(-378px)}27.2%{transform:translateX(-441px)}31.2%{transform:translateX(-504px)}33.3%{transform:translateX(-567px)}34.4%{transform:translateX(-630px)}38.6%{transform:translateX(-693px)}39.8%{transform:translateX(-756px)}42.3%{transform:translateX(-819px)}43.1%{transform:translateX(-882px)}45.5%{transform:translateX(-945px)}48.4%{transform:translateX(-1008px)}50.8%{transform:translateX(-1071px)}52.7%{transform:translateX(-1134px)}54%{transform:translateX(-1197px)}55.6%{transform:translateX(-1260px)}58.2%{transform:translateX(-1323px)}61.7%{transform:translateX(-1386px)}63.3%{transform:translateX(-1449px)}64.8%{transform:translateX(-1512px)}67.1%{transform:translateX(-1575px)}68.8%{transform:translateX(-1764px)}75%{transform:translateX(-1827px)}75.1%{transform:translateX(-1953px)}78%{transform:translateX(-2016px)}78.1%{transform:translateX(-2079px)}to{transform:translateX(-2142px)}}.a{fill:#282d35}.f,.g{fill:#d290e4;white-space:pre}.g{fill:#b9c0cb}</style><g font-family="Monaco,Consolas,Menlo,'Bitstream Vera Sans Mono','Powerline Symbols',monospace" font-size="1.67"><defs><symbol id="1"><text y="1.67" class="f">[project-ls]</text></symbol><symbol id="2"><text y="1.67" class="f">[project-ls]</text><text x="13.026" y="1.67" class="g">ecs-preview</text></symbol><symbol id="3"><text y="1.67" class="f">[project-ls]</text><text x="13.026" y="1.67" class="g">ecs-preview</text><text x="25.05" y="1.67" class="g">project</text></symbol><symbol id="4"><text y="1.67" class="f">[project-ls]</text><text x="13.026" y="1.67" class="g">ecs-preview</text><text x="25.05" y="1.67" class="g">project</text><text x="33.066" y="1.67" class="g">ls</text></symbol><symbol id="5"><text y="1.67" class="g">kudos</text></symbol><symbol id="6"><text y="1.67" class="g">project-init-demo</text></symbol><symbol id="a"><path fill="transparent" d="M0 0h63v17H0z"/></symbol><symbol id="b"><path fill="#6f7683" d="M0 0h1.102v2.171H0z"/></symbol></defs><path class="a" d="M0 0h63v36.907H0z"/><g style="animation-duration:5.590755s;animation-iteration-count:infinite;animation-name:j;animation-timing-function:steps(1,end)"><svg width="2205"><svg><use xlink:href="#a"/><use xlink:href="#b" x="-.004"/></svg><svg x="63"><use xlink:href="#a"/><use xlink:href="#b" x="-.004"/></svg><svg x="126"><use xlink:href="#a"/><use xlink:href="#b" x="12.996"/><use xlink:href="#1"/></svg><svg x="189"><use xlink:href="#a"/><use xlink:href="#b" x="12.996"/><use xlink:href="#1"/></svg><svg x="252"><use xlink:href="#a"/><use xlink:href="#b" x="13.996"/><text y="1.67" class="f">[project-ls]</text><text x="13.026" y="1.67" class="g">e</text></svg><svg x="315"><use xlink:href="#a"/><use xlink:href="#b" x="14.996"/><text y="1.67" class="f">[project-ls]</text><text x="13.026" y="1.67" class="g">ec</text></svg><svg x="378"><use xlink:href="#a"/><use xlink:href="#b" x="15.996"/><text y="1.67" class="f">[project-ls]</text><text x="13.026" y="1.67" class="g">ecs</text></svg><svg x="441"><use xlink:href="#a"/><use xlink:href="#b" x="16.996"/><text y="1.67" class="f">[project-ls]</text><text x="13.026" y="1.67" class="g">ecs-</text></svg><svg x="504"><use xlink:href="#a"/><use xlink:href="#b" x="17.996"/><text y="1.67" class="f">[project-ls]</text><text x="13.026" y="1.67" class="g">ecs-p</text></svg><svg x="567"><use xlink:href="#a"/><use xlink:href="#b" x="18.996"/><text y="1.67" class="f">[project-ls]</text><text x="13.026" y="1.67" class="g">ecs-pr</text></svg><svg x="630"><use xlink:href="#a"/><use xlink:href="#b" x="19.996"/><text y="1.67" class="f">[project-ls]</text><text x="13.026" y="1.67" class="g">ecs-pre</text></svg><svg x="693"><use xlink:href="#a"/><use xlink:href="#b" x="20.996"/><text y="1.67" class="f">[project-ls]</text><text x="13.026" y="1.67" class="g">ecs-prev</text></svg><svg x="756"><use xlink:href="#a"/><use xlink:href="#b" x="21.996"/><text y="1.67" class="f">[project-ls]</text><text x="13.026" y="1.67" class="g">ecs-previ</text></svg><svg x="819"><use xlink:href="#a"/><use xlink:href="#b" x="22.996"/><text y="1.67" class="f">[project-ls]</text><text x="13.026" y="1.67" class="g">ecs-previe</text></svg><svg x="882"><use xlink:href="#a"/><use xlink:href="#b" x="23.996"/><use xlink:href="#2"/></svg><svg x="945"><use xlink:href="#a"/><use xlink:href="#b" x="24.996"/><use xlink:href="#2"/></svg><svg x="1008"><use xlink:href="#a"/><use xlink:href="#b" x="25.996"/><text y="1.67" class="f">[project-ls]</text><text x="13.026" y="1.67" class="g">ecs-preview</text><text x="25.05" y="1.67" class="g">p</text></svg><svg x="1071"><use xlink:href="#a"/><use xlink:href="#b" x="26.996"/><text y="1.67" class="f">[project-ls]</text><text x="13.026" y="1.67" class="g">ecs-preview</text><text x="25.05" y="1.67" class="g">pr</text></svg><svg x="1134"><use xlink:href="#a"/><use xlink:href="#b" x="27.996"/><text y="1.67" class="f">[project-ls]</text><text x="13.026" y="1.67" class="g">ecs-preview</text><text x="25.05" y="1.67" class="g">pro</text></svg><svg x="1197"><use xlink:href="#a"/><use xlink:href="#b" x="28.996"/><text y="1.67" class="f">[project-ls]</text><text x="13.026" y="1.67" class="g">ecs-preview</text><text x="25.05" y="1.67" class="g">proj</text></svg><svg x="1260"><use xlink:href="#a"/><use xlink:href="#b" x="29.996"/><text y="1.67" class="f">[project-ls]</text><text x="13.026" y="1.67" class="g">ecs-preview</text><text x="25.05" y="1.67" class="g">proje</text></svg><svg x="1323"><use xlink:href="#a"/><use xlink:href="#b" x="30.996"/><text y="1.67" class="f">[project-ls]</text><text x="13.026" y="1.67" class="g">ecs-preview</text><text x="25.05" y="1.67" class="g">projec</text></svg><svg x="1386"><use xlink:href="#a"/><use xlink:href="#b" x="31.996"/><use xlink:href="#3"/></svg><svg x="1449"><use xlink:href="#a"/><use xlink:href="#b" x="32.996"/><use xlink:href="#3"/></svg><svg x="1512"><use xlink:href="#a"/><use xlink:href="#b" x="33.996"/><text y="1.67" class="f">[project-ls]</text><text x="13.026" y="1.67" class="g">ecs-preview</text><text x="25.05" y="1.67" class="g">project</text><text x="33.066" y="1.67" class="g">l</text></svg><svg x="1575"><use xlink:href="#a"/><use xlink:href="#b" x="34.996"/><use xlink:href="#4"/></svg><svg x="1638"><use xlink:href="#a"/><use xlink:href="#b" x="34.996"/><use xlink:href="#4"/></svg><svg x="1701"><use xlink:href="#a"/><use xlink:href="#b" x="-.004" y="2.146"/><use xlink:href="#4"/></svg><svg x="1764"><use xlink:href="#a"/><use xlink:href="#b" x="-.004" y="2.146"/><use xlink:href="#4"/></svg><svg x="1827"><use xlink:href="#a"/><use xlink:href="#b" x="-.004" y="6.488"/><use xlink:href="#4"/><use xlink:href="#5" y="2.171"/><use xlink:href="#6" y="4.342"/></svg><svg x="1890"><use xlink:href="#a"/><use xlink:href="#b" x="-.004" y="6.488"/><use xlink:href="#4"/><use xlink:href="#5" y="2.171"/><use xlink:href="#6" y="4.342"/></svg><svg x="1953"><use xlink:href="#a"/><use xlink:href="#b" x="-.004" y="6.488"/><use xlink:href="#4"/><use xlink:href="#5" y="2.171"/><use xlink:href="#6" y="4.342"/></svg><svg x="2016"><use xlink:href="#a"/><use xlink:href="#b" x="12.996" y="6.488"/><use xlink:href="#4"/><use xlink:href="#5" y="2.171"/><use xlink:href="#6" y="4.342"/><use xlink:href="#1" y="6.513"/></svg><svg x="2079"><use xlink:href="#a"/><use xlink:href="#b" x="12.996" y="6.488"/><use xlink:href="#4"/><use xlink:href="#5" y="2.171"/><use xlink:href="#6" y="4.342"/><use xlink:href="#1" y="6.513"/></svg><svg x="2142"><use xlink:href="#a"/><use xlink:href="#b" x="-.004" y="8.659"/><use xlink:href="#4"/><use xlink:href="#5" y="2.171"/><use xlink:href="#6" y="4.342"/><use xlink:href="#1" y="6.513"/></svg></svg></g></g></svg></svg>