<svg xmlns="http://www.w3.org/2000/svg" xmlns:xlink="http://www.w3.org/1999/xlink" width="650" height="515.91"><rect width="650" height="515.91" rx="5" ry="5" class="a"/><svg y="0%" x="0%"><circle cx="20" cy="20" r="6" fill="#ff5f58"/><circle cx="40" cy="20" r="6" fill="#ffbd2e"/><circle cx="60" cy="20" r="6" fill="#18c132"/></svg><svg height="455.91" viewBox="0 0 61 45.591" width="610" x="15" xmlns="http://www.w3.org/2000/svg" xmlns:xlink="http://www.w3.org/1999/xlink" y="50"><style>@keyframes k{0%{transform:translateX(0)}7.7%{transform:translateX(-61px)}17.9%{transform:translateX(-244px)}25.1%{transform:translateX(-305px)}27.8%{transform:translateX(-366px)}28.7%{transform:translateX(-427px)}30%{transform:translateX(-488px)}33%{transform:translateX(-549px)}34.8%{transform:translateX(-610px)}35.4%{transform:translateX(-671px)}38.3%{transform:translateX(-732px)}39.7%{transform:translateX(-793px)}41%{transform:translateX(-854px)}41.5%{transform:translateX(-915px)}43.1%{transform:translateX(-976px)}44.5%{transform:translateX(-1037px)}46.1%{transform:translateX(-1098px)}47.5%{transform:translateX(-1159px)}48.5%{transform:translateX(-1220px)}49.6%{transform:translateX(-1281px)}51.7%{transform:translateX(-1342px)}53.8%{transform:translateX(-1403px)}55.6%{transform:translateX(-1464px)}57.4%{transform:translateX(-1525px)}59.1%{transform:translateX(-1586px)}59.8%{transform:translateX(-1647px)}60.7%{transform:translateX(-1708px)}63.3%{transform:translateX(-1830px)}63.4%{transform:translateX(-1891px)}71.4%{transform:translateX(-1952px)}71.5%{transform:translateX(-2074px)}74.2%{transform:translateX(-2196px)}to{transform:translateX(-2257px)}}.a{fill:#282d35}.f,.g,.h{fill:#d290e4;white-space:pre}.g,.h{fill:#b9c0cb}.h{font-weight:700}</style><g font-family="Monaco,Consolas,Menlo,'Bitstream Vera Sans Mono','Powerline Symbols',monospace" font-size="1.67"><defs><symbol id="9"><text x="2.004" y="1.67" class="g">Name</text><text x="20.04" y="1.67" class="g">AccountID</text><text x="40.08" y="1.67" class="g">Region</text></symbol><symbol id="1"><text y="1.67" class="f">[project-show]</text></symbol><symbol id="3"><text y="1.67" class="f">[project-show]</text><text x="15.03" y="1.67" class="g">ecs-preview</text><text x="27.054" y="1.67" class="g">project</text></symbol><symbol id="4"><text y="1.67" class="f">[project-show]</text><text x="15.03" y="1.67" class="g">ecs-preview</text><text x="27.054" y="1.67" class="g">project</text><text x="35.07" y="1.67" class="g">show</text></symbol><symbol id="5"><text y="1.67" class="h">About</text></symbol><symbol id="6"><text x="2.004" y="1.67" class="g">Name</text><text x="20.04" y="1.67" class="g">kudos</text></symbol><symbol id="7"><text x="2.004" y="1.67" class="g">URI</text></symbol><symbol id="8"><text y="1.67" class="h">Environments</text></symbol><symbol id="2"><text y="1.67" class="f">[project-show]</text><text x="15.03" y="1.67" class="g">ecs-preview</text></symbol><symbol id="10"><text x="2.004" y="1.67" class="g">test</text><text x="20.04" y="1.67" class="g">713517298797</text><text x="40.08" y="1.67" class="g">us-west-2</text></symbol><symbol id="11"><text y="1.67" class="h">Applications</text></symbol><symbol id="12"><text x="2.004" y="1.67" class="g">Name</text><text x="20.04" y="1.67" class="g">Type</text></symbol><symbol id="13"><text x="2.004" y="1.67" class="g">back-end</text><text x="20.04" y="1.67" class="g">Load</text><text x="25.05" y="1.67" class="g">Balanced</text><text x="34.068" y="1.67" class="g">Web</text><text x="38.076" y="1.67" class="g">App</text></symbol><symbol id="14"><text x="2.004" y="1.67" class="g">front-end</text><text x="20.04" y="1.67" class="g">Load</text><text x="25.05" y="1.67" class="g">Balanced</text><text x="34.068" y="1.67" class="g">Web</text><text x="38.076" y="1.67" class="g">App</text></symbol><symbol id="a"><path fill="transparent" d="M0 0h61v21H0z"/></symbol><symbol id="b"><path fill="#6f7683" d="M0 0h1.102v2.171H0z"/></symbol></defs><path class="a" d="M0 0h61v45.591H0z"/><g style="animation-duration:7.173679s;animation-iteration-count:infinite;animation-name:k;animation-timing-function:steps(1,end)"><svg width="2318"><svg><use xlink:href="#a"/><use xlink:href="#b" x="-.004"/></svg><svg x="61"><use xlink:href="#a"/><use xlink:href="#b" x="-.004"/></svg><svg x="122"><use xlink:href="#a"/><use xlink:href="#b" x="14.996"/><use xlink:href="#1"/></svg><svg x="183"><use xlink:href="#a"/><use xlink:href="#b" x="14.996"/><use xlink:href="#1"/></svg><svg x="244"><use xlink:href="#a"/><use xlink:href="#b" x="14.996"/><use xlink:href="#1"/></svg><svg x="305"><use xlink:href="#a"/><use xlink:href="#b" x="15.996"/><text y="1.67" class="f">[project-show]</text><text x="15.03" y="1.67" class="g">e</text></svg><svg x="366"><use xlink:href="#a"/><use xlink:href="#b" x="16.996"/><text y="1.67" class="f">[project-show]</text><text x="15.03" y="1.67" class="g">ec</text></svg><svg x="427"><use xlink:href="#a"/><use xlink:href="#b" x="17.996"/><text y="1.67" class="f">[project-show]</text><text x="15.03" y="1.67" class="g">ecs</text></svg><svg x="488"><use xlink:href="#a"/><use xlink:href="#b" x="18.996"/><text y="1.67" class="f">[project-show]</text><text x="15.03" y="1.67" class="g">ecs-</text></svg><svg x="549"><use xlink:href="#a"/><use xlink:href="#b" x="19.996"/><text y="1.67" class="f">[project-show]</text><text x="15.03" y="1.67" class="g">ecs-p</text></svg><svg x="610"><use xlink:href="#a"/><use xlink:href="#b" x="20.996"/><text y="1.67" class="f">[project-show]</text><text x="15.03" y="1.67" class="g">ecs-pr</text></svg><svg x="671"><use xlink:href="#a"/><use xlink:href="#b" x="21.996"/><text y="1.67" class="f">[project-show]</text><text x="15.03" y="1.67" class="g">ecs-pre</text></svg><svg x="732"><use xlink:href="#a"/><use xlink:href="#b" x="22.996"/><text y="1.67" class="f">[project-show]</text><text x="15.03" y="1.67" class="g">ecs-prev</text></svg><svg x="793"><use xlink:href="#a"/><use xlink:href="#b" x="23.996"/><text y="1.67" class="f">[project-show]</text><text x="15.03" y="1.67" class="g">ecs-previ</text></svg><svg x="854"><use xlink:href="#a"/><use xlink:href="#b" x="24.996"/><text y="1.67" class="f">[project-show]</text><text x="15.03" y="1.67" class="g">ecs-previe</text></svg><svg x="915"><use xlink:href="#a"/><use xlink:href="#b" x="25.996"/><use xlink:href="#2"/></svg><svg x="976"><use xlink:href="#a"/><use xlink:href="#b" x="26.996"/><use xlink:href="#2"/></svg><svg x="1037"><use xlink:href="#a"/><use xlink:href="#b" x="27.996"/><text y="1.67" class="f">[project-show]</text><text x="15.03" y="1.67" class="g">ecs-preview</text><text x="27.054" y="1.67" class="g">p</text></svg><svg x="1098"><use xlink:href="#a"/><use xlink:href="#b" x="28.996"/><text y="1.67" class="f">[project-show]</text><text x="15.03" y="1.67" class="g">ecs-preview</text><text x="27.054" y="1.67" class="g">pr</text></svg><svg x="1159"><use xlink:href="#a"/><use xlink:href="#b" x="29.996"/><text y="1.67" class="f">[project-show]</text><text x="15.03" y="1.67" class="g">ecs-preview</text><text x="27.054" y="1.67" class="g">pro</text></svg><svg x="1220"><use xlink:href="#a"/><use xlink:href="#b" x="30.996"/><text y="1.67" class="f">[project-show]</text><text x="15.03" y="1.67" class="g">ecs-preview</text><text x="27.054" y="1.67" class="g">proj</text></svg><svg x="1281"><use xlink:href="#a"/><use xlink:href="#b" x="31.996"/><text y="1.67" class="f">[project-show]</text><text x="15.03" y="1.67" class="g">ecs-preview</text><text x="27.054" y="1.67" class="g">proje</text></svg><svg x="1342"><use xlink:href="#a"/><use xlink:href="#b" x="32.996"/><text y="1.67" class="f">[project-show]</text><text x="15.03" y="1.67" class="g">ecs-preview</text><text x="27.054" y="1.67" class="g">projec</text></svg><svg x="1403"><use xlink:href="#a"/><use xlink:href="#b" x="33.996"/><use xlink:href="#3"/></svg><svg x="1464"><use xlink:href="#a"/><use xlink:href="#b" x="34.996"/><use xlink:href="#3"/></svg><svg x="1525"><use xlink:href="#a"/><use xlink:href="#b" x="35.996"/><text y="1.67" class="f">[project-show]</text><text x="15.03" y="1.67" class="g">ecs-preview</text><text x="27.054" y="1.67" class="g">project</text><text x="35.07" y="1.67" class="g">s</text></svg><svg x="1586"><use xlink:href="#a"/><use xlink:href="#b" x="36.996"/><text y="1.67" class="f">[project-show]</text><text x="15.03" y="1.67" class="g">ecs-preview</text><text x="27.054" y="1.67" class="g">project</text><text x="35.07" y="1.67" class="g">sh</text></svg><svg x="1647"><use xlink:href="#a"/><use xlink:href="#b" x="37.996"/><text y="1.67" class="f">[project-show]</text><text x="15.03" y="1.67" class="g">ecs-preview</text><text x="27.054" y="1.67" class="g">project</text><text x="35.07" y="1.67" class="g">sho</text></svg><svg x="1708"><use xlink:href="#a"/><use xlink:href="#b" x="38.996"/><use xlink:href="#4"/></svg><svg x="1769"><use xlink:href="#a"/><use xlink:href="#b" x="38.996"/><use xlink:href="#4"/></svg><svg x="1830"><use xlink:href="#a"/><use xlink:href="#b" x="-.004" y="2.146"/><use xlink:href="#4"/></svg><svg x="1891"><use xlink:href="#a"/><use xlink:href="#b" x="-.004" y="2.146"/><use xlink:href="#4"/></svg><svg x="1952"><use xlink:href="#a"/><use xlink:href="#b" x="-.004" y="34.711"/><use xlink:href="#4"/><use xlink:href="#5" y="2.171"/><use xlink:href="#6" y="6.513"/><use xlink:href="#7" y="8.684"/><use xlink:href="#8" y="13.026"/><use xlink:href="#9" y="17.368"/><use xlink:href="#10" y="19.539"/><use xlink:href="#11" y="23.881"/><use xlink:href="#12" y="28.223"/><use xlink:href="#13" y="30.394"/><use xlink:href="#14" y="32.565"/></svg><svg x="2013"><use xlink:href="#a"/><use xlink:href="#b" x="-.004" y="34.711"/><use xlink:href="#4"/><use xlink:href="#5" y="2.171"/><use xlink:href="#6" y="6.513"/><use xlink:href="#7" y="8.684"/><use xlink:href="#8" y="13.026"/><use xlink:href="#9" y="17.368"/><use xlink:href="#10" y="19.539"/><use xlink:href="#11" y="23.881"/><use xlink:href="#12" y="28.223"/><use xlink:href="#13" y="30.394"/><use xlink:href="#14" y="32.565"/></svg><svg x="2074"><use xlink:href="#a"/><use xlink:href="#b" x="-.004" y="34.711"/><use xlink:href="#4"/><use xlink:href="#5" y="2.171"/><use xlink:href="#6" y="6.513"/><use xlink:href="#7" y="8.684"/><use xlink:href="#8" y="13.026"/><use xlink:href="#9" y="17.368"/><use xlink:href="#10" y="19.539"/><use xlink:href="#11" y="23.881"/><use xlink:href="#12" y="28.223"/><use xlink:href="#13" y="30.394"/><use xlink:href="#14" y="32.565"/></svg><svg x="2135"><use xlink:href="#a"/><use xlink:href="#b" x="14.996" y="34.711"/><use xlink:href="#4"/><use xlink:href="#5" y="2.171"/><use xlink:href="#6" y="6.513"/><use xlink:href="#7" y="8.684"/><use xlink:href="#8" y="13.026"/><use xlink:href="#9" y="17.368"/><use xlink:href="#10" y="19.539"/><use xlink:href="#11" y="23.881"/><use xlink:href="#12" y="28.223"/><use xlink:href="#13" y="30.394"/><use xlink:href="#14" y="32.565"/><use xlink:href="#1" y="34.736"/></svg><svg x="2196"><use xlink:href="#a"/><use xlink:href="#b" x="14.996" y="34.711"/><use xlink:href="#4"/><use xlink:href="#5" y="2.171"/><use xlink:href="#6" y="6.513"/><use xlink:href="#7" y="8.684"/><use xlink:href="#8" y="13.026"/><use xlink:href="#9" y="17.368"/><use xlink:href="#10" y="19.539"/><use xlink:href="#11" y="23.881"/><use xlink:href="#12" y="28.223"/><use xlink:href="#13" y="30.394"/><use xlink:href="#14" y="32.565"/><use xlink:href="#1" y="34.736"/></svg><svg x="2257"><use xlink:href="#a"/><use xlink:href="#b" x="-.004" y="36.882"/><use xlink:href="#4"/><use xlink:href="#5" y="2.171"/><use xlink:href="#6" y="6.513"/><use xlink:href="#7" y="8.684"/><use xlink:href="#8" y="13.026"/><use xlink:href="#9" y="17.368"/><use xlink:href="#10" y="19.539"/><use xlink:href="#11" y="23.881"/><use xlink:href="#12" y="28.223"/><use xlink:href="#13" y="30.394"/><use xlink:href="#14" y="32.565"/><use xlink:href="#1" y="34.736"/></svg></svg></g></g></svg></svg>