<svg xmlns="http://www.w3.org/2000/svg" xmlns:xlink="http://www.w3.org/1999/xlink" width="1030" height="472.49"><rect width="1030" height="472.49" rx="5" ry="5" class="a"/><svg y="0%" x="0%"><circle cx="20" cy="20" r="6" fill="#ff5f58"/><circle cx="40" cy="20" r="6" fill="#ffbd2e"/><circle cx="60" cy="20" r="6" fill="#18c132"/></svg><svg height="412.49" viewBox="0 0 99 41.249" width="990" x="15" xmlns="http://www.w3.org/2000/svg" xmlns:xlink="http://www.w3.org/1999/xlink" y="50"><style>@keyframes o{0%{transform:translateX(0)}2.92%{transform:translateX(-99px)}2.93%{transform:translateX(-198px)}4.67%{transform:translateX(-396px)}4.68%{transform:translateX(-594px)}7.76%{transform:translateX(-693px)}8.95%{transform:translateX(-792px)}9.13%{transform:translateX(-891px)}9.93%{transform:translateX(-990px)}12.25%{transform:translateX(-1089px)}14.74%{transform:translateX(-1188px)}15.46%{transform:translateX(-1287px)}16.66%{transform:translateX(-1386px)}17.4%{transform:translateX(-1485px)}17.81%{transform:translateX(-1584px)}18.17%{transform:translateX(-1683px)}18.77%{transform:translateX(-1782px)}19.6%{transform:translateX(-1881px)}20.42%{transform:translateX(-1980px)}21.02%{transform:translateX(-2079px)}21.56%{transform:translateX(-2178px)}22.07%{transform:translateX(-2277px)}23.1%{transform:translateX(-2376px)}24.29%{transform:translateX(-2475px)}25.23%{transform:translateX(-2574px)}26.04%{transform:translateX(-2673px)}26.74%{transform:translateX(-2772px)}27.21%{transform:translateX(-2871px)}27.98%{transform:translateX(-2970px)}28.79%{transform:translateX(-3168px)}28.8%{transform:translateX(-3267px)}31.45%{transform:translateX(-3465px)}31.47%{transform:translateX(-3861px)}40.03%{transform:translateX(-3960px)}44.95%{transform:translateX(-4158px)}44.96%{transform:translateX(-4455px)}55.15%{transform:translateX(-4554px)}56.04%{transform:translateX(-4653px)}56.41%{transform:translateX(-4752px)}56.92%{transform:translateX(-4851px)}57.27%{transform:translateX(-4950px)}58.29%{transform:translateX(-5049px)}59.32%{transform:translateX(-5148px)}61.51%{transform:translateX(-5247px)}62.78%{transform:translateX(-5346px)}63.56%{transform:translateX(-5445px)}64.02%{transform:translateX(-5544px)}64.58%{transform:translateX(-5643px)}65.35%{transform:translateX(-5742px)}66%{transform:translateX(-5841px)}66.9%{transform:translateX(-5940px)}67.23%{transform:translateX(-6039px)}67.66%{transform:translateX(-6138px)}69.12%{transform:translateX(-6237px)}69.13%{transform:translateX(-6336px)}71.89%{transform:translateX(-6534px)}71.91%{transform:translateX(-6732px)}73.32%{transform:translateX(-6930px)}85.68%{transform:translateX(-7029px)}86.87%{transform:translateX(-7128px)}87.24%{transform:translateX(-7227px)}88.07%{transform:translateX(-7326px)}88.92%{transform:translateX(-7623px)}89.21%{transform:translateX(-7722px)}89.22%{transform:translateX(-8019px)}90.36%{transform:translateX(-8217px)}to{transform:translateX(-8316px)}}.a{fill:#282d35}.f{fill:#d290e4}.f,.g,.h{white-space:pre}.g{fill:#b9c0cb}.h{font-weight:700}.h,.i{fill:#66c2cd}.i,.j,.k,.l{white-space:pre}.j{fill:#b9c0cb;font-weight:700}.k,.l{fill:#b9bfca}.l{fill:#a8cc8c}</style><g font-family="Monaco,Consolas,Menlo,'Bitstream Vera Sans Mono','Powerline Symbols',monospace" font-size="1.67"><defs><symbol id="12"><text y="1.67" class="h">?</text><text x="2.004" y="1.67" class="g">What</text><text x="7.014" y="1.67" class="g">would</text><text x="13.026" y="1.67" class="g">you</text><text x="17.034" y="1.67" class="g">like</text><text x="22.044" y="1.67" class="g">to</text><text x="25.05" y="1.67" class="j">name</text><text x="30.06" y="1.67" class="g">your</text><text x="35.07" y="1.67" class="g">project?</text><text x="44.088" y="1.67" class="i">project-init-demo</text></symbol><symbol id="1"><text y="1.67" class="f">[project-init]</text></symbol><symbol id="3"><text y="1.67" class="f">[project-init]</text><text x="15.03" y="1.67" class="g">ecs-preview</text><text x="27.054" y="1.67" class="g">project</text></symbol><symbol id="4"><text y="1.67" class="f">[project-init]</text><text x="15.03" y="1.67" class="g">ecs-preview</text><text x="27.054" y="1.67" class="g">project</text><text x="35.07" y="1.67" class="g">init</text></symbol><symbol id="5"><text y="1.67" class="g">Looks</text><text x="6.012" y="1.67" class="g">like</text><text x="11.022" y="1.67" class="g">you</text><text x="15.03" y="1.67" class="g">have</text><text x="20.04" y="1.67" class="g">some</text><text x="25.05" y="1.67" class="g">projects</text><text x="34.068" y="1.67" class="g">already.</text></symbol><symbol id="6"><text y="1.67" class="h">?</text><text x="2.004" y="1.67" class="g">Would</text><text x="8.016" y="1.67" class="g">you</text><text x="12.024" y="1.67" class="g">like</text><text x="17.034" y="1.67" class="g">to</text><text x="20.04" y="1.67" class="g">use</text><text x="24.048" y="1.67" class="g">one</text><text x="28.056" y="1.67" class="g">of</text><text x="31.062" y="1.67" class="g">your</text><text x="36.072" y="1.67" class="g">existing</text><text x="45.09" y="1.67" class="g">projects?</text><text x="55.11" y="1.67" class="i">(Y/n)</text></symbol><symbol id="7"><text y="1.67" class="h">?</text><text x="2.004" y="1.67" class="g">Would</text><text x="8.016" y="1.67" class="g">you</text><text x="12.024" y="1.67" class="g">like</text><text x="17.034" y="1.67" class="g">to</text><text x="20.04" y="1.67" class="g">use</text><text x="24.048" y="1.67" class="g">one</text><text x="28.056" y="1.67" class="g">of</text><text x="31.062" y="1.67" class="g">your</text><text x="36.072" y="1.67" class="g">existing</text><text x="45.09" y="1.67" class="g">projects?</text><text x="55.11" y="1.67" class="i">(Y/n)</text><text x="61.122" y="1.67" class="g">n</text></symbol><symbol id="8"><text y="1.67" class="h">?</text><text x="2.004" y="1.67" class="g">Would</text><text x="8.016" y="1.67" class="g">you</text><text x="12.024" y="1.67" class="g">like</text><text x="17.034" y="1.67" class="g">to</text><text x="20.04" y="1.67" class="g">use</text><text x="24.048" y="1.67" class="g">one</text><text x="28.056" y="1.67" class="g">of</text><text x="31.062" y="1.67" class="g">your</text><text x="36.072" y="1.67" class="g">existing</text><text x="45.09" y="1.67" class="g">projects?</text><text x="55.11" y="1.67" class="i">No</text></symbol><symbol id="9"><text y="1.67" class="g">Ok,</text><text x="4.008" y="1.67" class="g">let&apos;s</text><text x="10.02" y="1.67" class="g">create</text><text x="17.034" y="1.67" class="g">a</text><text x="19.038" y="1.67" class="g">new</text><text x="23.046" y="1.67" class="g">project</text><text x="31.062" y="1.67" class="g">then.</text></symbol><symbol id="10"><text y="1.67" class="h">?</text><text x="2.004" y="1.67" class="g">What</text><text x="7.014" y="1.67" class="g">would</text><text x="13.026" y="1.67" class="g">you</text><text x="17.034" y="1.67" class="g">like</text><text x="22.044" y="1.67" class="g">to</text><text x="25.05" y="1.67" class="j">name</text><text x="30.06" y="1.67" class="g">your</text><text x="35.07" y="1.67" class="g">project?</text><text x="44.088" y="1.67" class="k">[?</text><text x="47.094" y="1.67" class="k">for</text><text x="51.102" y="1.67" class="k">help]</text></symbol><symbol id="11"><text y="1.67" class="h">?</text><text x="2.004" y="1.67" class="g">What</text><text x="7.014" y="1.67" class="g">would</text><text x="13.026" y="1.67" class="g">you</text><text x="17.034" y="1.67" class="g">like</text><text x="22.044" y="1.67" class="g">to</text><text x="25.05" y="1.67" class="j">name</text><text x="30.06" y="1.67" class="g">your</text><text x="35.07" y="1.67" class="g">project?</text><text x="44.088" y="1.67" class="k">[?</text><text x="47.094" y="1.67" class="k">for</text><text x="51.102" y="1.67" class="k">help]</text><text x="57.114" y="1.67" class="g">project-init-demo</text></symbol><symbol id="2"><text y="1.67" class="f">[project-init]</text><text x="15.03" y="1.67" class="g">ecs-preview</text></symbol><symbol id="13"><text y="1.67" class="g"></text></symbol><symbol id="14"><text y="1.67" class="l">✔</text><text x="2.004" y="1.67" class="g">Created</text><text x="10.02" y="1.67" class="g">the</text><text x="14.028" y="1.67" class="g">infrastructure</text><text x="29.058" y="1.67" class="g">to</text><text x="32.064" y="1.67" class="g">manage</text><text x="39.078" y="1.67" class="g">container</text><text x="49.098" y="1.67" class="g">repositories</text><text x="62.124" y="1.67" class="g">under</text><text x="68.136" y="1.67" class="g">project</text><text x="76.152" y="1.67" class="i">project-init-demo</text><text x="93.186" y="1.67" class="g">.</text></symbol><symbol id="15"><text y="1.67" class="l">✔</text><text x="2.004" y="1.67" class="g">The</text><text x="6.012" y="1.67" class="g">directory</text><text x="16.032" y="1.67" class="i">ecs-project</text><text x="28.056" y="1.67" class="g">will</text><text x="33.066" y="1.67" class="g">hold</text><text x="38.076" y="1.67" class="g">application</text><text x="50.1" y="1.67" class="g">manifests</text><text x="60.12" y="1.67" class="g">for</text><text x="64.128" y="1.67" class="g">project</text><text x="72.144" y="1.67" class="i">project-init-demo</text><text x="89.178" y="1.67" class="g">.</text></symbol><symbol id="16"><text y="1.67" class="g">Recommended</text><text x="12.024" y="1.67" class="g">follow-up</text><text x="22.044" y="1.67" class="g">actions:</text></symbol><symbol id="17"><text y="1.67" class="g">-</text><text x="2.004" y="1.67" class="g">Run</text><text x="6.012" y="1.67" class="i">`ecs-preview</text><text x="19.038" y="1.67" class="i">init`</text><text x="25.05" y="1.67" class="g">to</text><text x="28.056" y="1.67" class="g">add</text><text x="32.064" y="1.67" class="g">a</text><text x="34.068" y="1.67" class="g">new</text><text x="38.076" y="1.67" class="g">application</text><text x="50.1" y="1.67" class="g">to</text><text x="53.106" y="1.67" class="g">your</text><text x="58.116" y="1.67" class="g">project.</text></symbol><symbol id="18"><text y="1.67" class="f">[project-init]</text><text x="15.03" y="1.67" class="g">tree</text></symbol><symbol id="19"><text y="1.67" class="g">.</text></symbol><symbol id="20"><text y="1.67" class="g">└──</text><text x="4.008" y="1.67" class="g">ecs-project</text></symbol><symbol id="21"><text y="1.67" class="g">1</text><text x="2.004" y="1.67" class="g">directory,</text><text x="13.026" y="1.67" class="g">0</text><text x="15.03" y="1.67" class="g">files</text></symbol><symbol id="a"><path fill="transparent" d="M0 0h99v19H0z"/></symbol><symbol id="b"><path fill="#6f7683" d="M0 0h1.102v2.171H0z"/></symbol></defs><path class="a" d="M0 0h99v41.249H0z"/><g style="animation-duration:19.578s;animation-iteration-count:infinite;animation-name:o;animation-timing-function:steps(1,end)"><svg width="8415"><svg><use xlink:href="#a"/><use xlink:href="#b" x="-.004"/></svg><svg x="99"><use xlink:href="#a"/><use xlink:href="#b" x="-.004"/></svg><svg x="198"><use xlink:href="#a"/><use xlink:href="#b" x="-.004"/></svg><svg x="297"><use xlink:href="#a"/><use xlink:href="#b" x="14.996"/><use xlink:href="#1"/></svg><svg x="396"><use xlink:href="#a"/><use xlink:href="#b" x="14.996"/><use xlink:href="#1"/></svg><svg x="495"><use xlink:href="#a"/><use xlink:href="#b" x="14.996"/><use xlink:href="#1"/></svg><svg x="594"><use xlink:href="#a"/><use xlink:href="#b" x="14.996"/><use xlink:href="#1"/></svg><svg x="693"><use xlink:href="#a"/><use xlink:href="#b" x="15.996"/><text y="1.67" class="f">[project-init]</text><text x="15.03" y="1.67" class="g">e</text></svg><svg x="792"><use xlink:href="#a"/><use xlink:href="#b" x="16.996"/><text y="1.67" class="f">[project-init]</text><text x="15.03" y="1.67" class="g">ec</text></svg><svg x="891"><use xlink:href="#a"/><use xlink:href="#b" x="17.996"/><text y="1.67" class="f">[project-init]</text><text x="15.03" y="1.67" class="g">ecs</text></svg><svg x="990"><use xlink:href="#a"/><use xlink:href="#b" x="18.996"/><text y="1.67" class="f">[project-init]</text><text x="15.03" y="1.67" class="g">ecs-</text></svg><svg x="1089"><use xlink:href="#a"/><use xlink:href="#b" x="19.996"/><text y="1.67" class="f">[project-init]</text><text x="15.03" y="1.67" class="g">ecs-p</text></svg><svg x="1188"><use xlink:href="#a"/><use xlink:href="#b" x="20.996"/><text y="1.67" class="f">[project-init]</text><text x="15.03" y="1.67" class="g">ecs-pr</text></svg><svg x="1287"><use xlink:href="#a"/><use xlink:href="#b" x="21.996"/><text y="1.67" class="f">[project-init]</text><text x="15.03" y="1.67" class="g">ecs-pre</text></svg><svg x="1386"><use xlink:href="#a"/><use xlink:href="#b" x="22.996"/><text y="1.67" class="f">[project-init]</text><text x="15.03" y="1.67" class="g">ecs-prev</text></svg><svg x="1485"><use xlink:href="#a"/><use xlink:href="#b" x="23.996"/><text y="1.67" class="f">[project-init]</text><text x="15.03" y="1.67" class="g">ecs-previ</text></svg><svg x="1584"><use xlink:href="#a"/><use xlink:href="#b" x="24.996"/><text y="1.67" class="f">[project-init]</text><text x="15.03" y="1.67" class="g">ecs-previe</text></svg><svg x="1683"><use xlink:href="#a"/><use xlink:href="#b" x="25.996"/><use xlink:href="#2"/></svg><svg x="1782"><use xlink:href="#a"/><use xlink:href="#b" x="26.996"/><use xlink:href="#2"/></svg><svg x="1881"><use xlink:href="#a"/><use xlink:href="#b" x="27.996"/><text y="1.67" class="f">[project-init]</text><text x="15.03" y="1.67" class="g">ecs-preview</text><text x="27.054" y="1.67" class="g">p</text></svg><svg x="1980"><use xlink:href="#a"/><use xlink:href="#b" x="28.996"/><text y="1.67" class="f">[project-init]</text><text x="15.03" y="1.67" class="g">ecs-preview</text><text x="27.054" y="1.67" class="g">pr</text></svg><svg x="2079"><use xlink:href="#a"/><use xlink:href="#b" x="29.996"/><text y="1.67" class="f">[project-init]</text><text x="15.03" y="1.67" class="g">ecs-preview</text><text x="27.054" y="1.67" class="g">pro</text></svg><svg x="2178"><use xlink:href="#a"/><use xlink:href="#b" x="30.996"/><text y="1.67" class="f">[project-init]</text><text x="15.03" y="1.67" class="g">ecs-preview</text><text x="27.054" y="1.67" class="g">proj</text></svg><svg x="2277"><use xlink:href="#a"/><use xlink:href="#b" x="31.996"/><text y="1.67" class="f">[project-init]</text><text x="15.03" y="1.67" class="g">ecs-preview</text><text x="27.054" y="1.67" class="g">proje</text></svg><svg x="2376"><use xlink:href="#a"/><use xlink:href="#b" x="32.996"/><text y="1.67" class="f">[project-init]</text><text x="15.03" y="1.67" class="g">ecs-preview</text><text x="27.054" y="1.67" class="g">projec</text></svg><svg x="2475"><use xlink:href="#a"/><use xlink:href="#b" x="33.996"/><use xlink:href="#3"/></svg><svg x="2574"><use xlink:href="#a"/><use xlink:href="#b" x="34.996"/><use xlink:href="#3"/></svg><svg x="2673"><use xlink:href="#a"/><use xlink:href="#b" x="35.996"/><text y="1.67" class="f">[project-init]</text><text x="15.03" y="1.67" class="g">ecs-preview</text><text x="27.054" y="1.67" class="g">project</text><text x="35.07" y="1.67" class="g">i</text></svg><svg x="2772"><use xlink:href="#a"/><use xlink:href="#b" x="36.996"/><text y="1.67" class="f">[project-init]</text><text x="15.03" y="1.67" class="g">ecs-preview</text><text x="27.054" y="1.67" class="g">project</text><text x="35.07" y="1.67" class="g">in</text></svg><svg x="2871"><use xlink:href="#a"/><use xlink:href="#b" x="37.996"/><text y="1.67" class="f">[project-init]</text><text x="15.03" y="1.67" class="g">ecs-preview</text><text x="27.054" y="1.67" class="g">project</text><text x="35.07" y="1.67" class="g">ini</text></svg><svg x="2970"><use xlink:href="#a"/><use xlink:href="#b" x="38.996"/><use xlink:href="#4"/></svg><svg x="3069"><use xlink:href="#a"/><use xlink:href="#b" x="38.996"/><use xlink:href="#4"/></svg><svg x="3168"><use xlink:href="#a"/><use xlink:href="#b" x="-.004" y="2.146"/><use xlink:href="#4"/></svg><svg x="3267"><use xlink:href="#a"/><use xlink:href="#b" x="-.004" y="2.146"/><use xlink:href="#4"/></svg><svg x="3366"><use xlink:href="#a"/><use xlink:href="#b" x="-.004" y="4.317"/><use xlink:href="#4"/><use xlink:href="#5" y="2.171"/></svg><svg x="3465"><use xlink:href="#a"/><use xlink:href="#b" x="-.004" y="4.317"/><use xlink:href="#4"/><use xlink:href="#5" y="2.171"/></svg><svg x="3564"><use xlink:href="#a"/><use xlink:href="#b" x="60.996" y="6.488"/><use xlink:href="#4"/><use xlink:href="#5" y="2.171"/><use xlink:href="#6" y="6.513"/></svg><svg x="3663"><use xlink:href="#a"/><use xlink:href="#4"/><use xlink:href="#5" y="2.171"/><use xlink:href="#6" y="6.513"/></svg><svg x="3762"><use xlink:href="#a"/><use xlink:href="#4"/><use xlink:href="#5" y="2.171"/><use xlink:href="#6" y="6.513"/></svg><svg x="3861"><use xlink:href="#a"/><use xlink:href="#b" x="60.996" y="6.488"/><use xlink:href="#4"/><use xlink:href="#5" y="2.171"/><use xlink:href="#6" y="6.513"/></svg><svg x="3960"><use xlink:href="#a"/><use xlink:href="#b" x="61.996" y="6.488"/><use xlink:href="#4"/><use xlink:href="#5" y="2.171"/><use xlink:href="#7" y="6.513"/></svg><svg x="4059"><use xlink:href="#a"/><use xlink:href="#b" x="-.004" y="8.659"/><use xlink:href="#4"/><use xlink:href="#5" y="2.171"/><use xlink:href="#7" y="6.513"/></svg><svg x="4158"><use xlink:href="#a"/><use xlink:href="#b" x="-.004" y="13.001"/><use xlink:href="#4"/><use xlink:href="#5" y="2.171"/><use xlink:href="#8" y="8.684"/><use xlink:href="#9" y="10.855"/></svg><svg x="4257"><use xlink:href="#a"/><use xlink:href="#b" x="56.996" y="15.172"/><use xlink:href="#4"/><use xlink:href="#5" y="2.171"/><use xlink:href="#8" y="8.684"/><use xlink:href="#9" y="10.855"/><use xlink:href="#10" y="15.197"/></svg><svg x="4356"><use xlink:href="#a"/><use xlink:href="#4"/><use xlink:href="#5" y="2.171"/><use xlink:href="#8" y="8.684"/><use xlink:href="#9" y="10.855"/><use xlink:href="#10" y="15.197"/></svg><svg x="4455"><use xlink:href="#a"/><use xlink:href="#b" x="56.996" y="15.172"/><use xlink:href="#4"/><use xlink:href="#5" y="2.171"/><use xlink:href="#8" y="8.684"/><use xlink:href="#9" y="10.855"/><use xlink:href="#10" y="15.197"/></svg><svg x="4554"><use xlink:href="#a"/><use xlink:href="#b" x="57.996" y="15.172"/><use xlink:href="#4"/><use xlink:href="#5" y="2.171"/><use xlink:href="#8" y="8.684"/><use xlink:href="#9" y="10.855"/><text y="16.867" class="h">?</text><text x="2.004" y="16.867" class="g">What</text><text x="7.014" y="16.867" class="g">would</text><text x="13.026" y="16.867" class="g">you</text><text x="17.034" y="16.867" class="g">like</text><text x="22.044" y="16.867" class="g">to</text><text x="25.05" y="16.867" class="j">name</text><text x="30.06" y="16.867" class="g">your</text><text x="35.07" y="16.867" class="g">project?</text><text x="44.088" y="16.867" class="k">[?</text><text x="47.094" y="16.867" class="k">for</text><text x="51.102" y="16.867" class="k">help]</text><text x="57.114" y="16.867" class="g">p</text></svg><svg x="4653"><use xlink:href="#a"/><use xlink:href="#b" x="58.996" y="15.172"/><use xlink:href="#4"/><use xlink:href="#5" y="2.171"/><use xlink:href="#8" y="8.684"/><use xlink:href="#9" y="10.855"/><text y="16.867" class="h">?</text><text x="2.004" y="16.867" class="g">What</text><text x="7.014" y="16.867" class="g">would</text><text x="13.026" y="16.867" class="g">you</text><text x="17.034" y="16.867" class="g">like</text><text x="22.044" y="16.867" class="g">to</text><text x="25.05" y="16.867" class="j">name</text><text x="30.06" y="16.867" class="g">your</text><text x="35.07" y="16.867" class="g">project?</text><text x="44.088" y="16.867" class="k">[?</text><text x="47.094" y="16.867" class="k">for</text><text x="51.102" y="16.867" class="k">help]</text><text x="57.114" y="16.867" class="g">pr</text></svg><svg x="4752"><use xlink:href="#a"/><use xlink:href="#b" x="59.996" y="15.172"/><use xlink:href="#4"/><use xlink:href="#5" y="2.171"/><use xlink:href="#8" y="8.684"/><use xlink:href="#9" y="10.855"/><text y="16.867" class="h">?</text><text x="2.004" y="16.867" class="g">What</text><text x="7.014" y="16.867" class="g">would</text><text x="13.026" y="16.867" class="g">you</text><text x="17.034" y="16.867" class="g">like</text><text x="22.044" y="16.867" class="g">to</text><text x="25.05" y="16.867" class="j">name</text><text x="30.06" y="16.867" class="g">your</text><text x="35.07" y="16.867" class="g">project?</text><text x="44.088" y="16.867" class="k">[?</text><text x="47.094" y="16.867" class="k">for</text><text x="51.102" y="16.867" class="k">help]</text><text x="57.114" y="16.867" class="g">pro</text></svg><svg x="4851"><use xlink:href="#a"/><use xlink:href="#b" x="60.996" y="15.172"/><use xlink:href="#4"/><use xlink:href="#5" y="2.171"/><use xlink:href="#8" y="8.684"/><use xlink:href="#9" y="10.855"/><text y="16.867" class="h">?</text><text x="2.004" y="16.867" class="g">What</text><text x="7.014" y="16.867" class="g">would</text><text x="13.026" y="16.867" class="g">you</text><text x="17.034" y="16.867" class="g">like</text><text x="22.044" y="16.867" class="g">to</text><text x="25.05" y="16.867" class="j">name</text><text x="30.06" y="16.867" class="g">your</text><text x="35.07" y="16.867" class="g">project?</text><text x="44.088" y="16.867" class="k">[?</text><text x="47.094" y="16.867" class="k">for</text><text x="51.102" y="16.867" class="k">help]</text><text x="57.114" y="16.867" class="g">proj</text></svg><svg x="4950"><use xlink:href="#a"/><use xlink:href="#b" x="61.996" y="15.172"/><use xlink:href="#4"/><use xlink:href="#5" y="2.171"/><use xlink:href="#8" y="8.684"/><use xlink:href="#9" y="10.855"/><text y="16.867" class="h">?</text><text x="2.004" y="16.867" class="g">What</text><text x="7.014" y="16.867" class="g">would</text><text x="13.026" y="16.867" class="g">you</text><text x="17.034" y="16.867" class="g">like</text><text x="22.044" y="16.867" class="g">to</text><text x="25.05" y="16.867" class="j">name</text><text x="30.06" y="16.867" class="g">your</text><text x="35.07" y="16.867" class="g">project?</text><text x="44.088" y="16.867" class="k">[?</text><text x="47.094" y="16.867" class="k">for</text><text x="51.102" y="16.867" class="k">help]</text><text x="57.114" y="16.867" class="g">proje</text></svg><svg x="5049"><use xlink:href="#a"/><use xlink:href="#b" x="62.996" y="15.172"/><use xlink:href="#4"/><use xlink:href="#5" y="2.171"/><use xlink:href="#8" y="8.684"/><use xlink:href="#9" y="10.855"/><text y="16.867" class="h">?</text><text x="2.004" y="16.867" class="g">What</text><text x="7.014" y="16.867" class="g">would</text><text x="13.026" y="16.867" class="g">you</text><text x="17.034" y="16.867" class="g">like</text><text x="22.044" y="16.867" class="g">to</text><text x="25.05" y="16.867" class="j">name</text><text x="30.06" y="16.867" class="g">your</text><text x="35.07" y="16.867" class="g">project?</text><text x="44.088" y="16.867" class="k">[?</text><text x="47.094" y="16.867" class="k">for</text><text x="51.102" y="16.867" class="k">help]</text><text x="57.114" y="16.867" class="g">projec</text></svg><svg x="5148"><use xlink:href="#a"/><use xlink:href="#b" x="63.996" y="15.172"/><use xlink:href="#4"/><use xlink:href="#5" y="2.171"/><use xlink:href="#8" y="8.684"/><use xlink:href="#9" y="10.855"/><text y="16.867" class="h">?</text><text x="2.004" y="16.867" class="g">What</text><text x="7.014" y="16.867" class="g">would</text><text x="13.026" y="16.867" class="g">you</text><text x="17.034" y="16.867" class="g">like</text><text x="22.044" y="16.867" class="g">to</text><text x="25.05" y="16.867" class="j">name</text><text x="30.06" y="16.867" class="g">your</text><text x="35.07" y="16.867" class="g">project?</text><text x="44.088" y="16.867" class="k">[?</text><text x="47.094" y="16.867" class="k">for</text><text x="51.102" y="16.867" class="k">help]</text><text x="57.114" y="16.867" class="g">project</text></svg><svg x="5247"><use xlink:href="#a"/><use xlink:href="#b" x="64.996" y="15.172"/><use xlink:href="#4"/><use xlink:href="#5" y="2.171"/><use xlink:href="#8" y="8.684"/><use xlink:href="#9" y="10.855"/><text y="16.867" class="h">?</text><text x="2.004" y="16.867" class="g">What</text><text x="7.014" y="16.867" class="g">would</text><text x="13.026" y="16.867" class="g">you</text><text x="17.034" y="16.867" class="g">like</text><text x="22.044" y="16.867" class="g">to</text><text x="25.05" y="16.867" class="j">name</text><text x="30.06" y="16.867" class="g">your</text><text x="35.07" y="16.867" class="g">project?</text><text x="44.088" y="16.867" class="k">[?</text><text x="47.094" y="16.867" class="k">for</text><text x="51.102" y="16.867" class="k">help]</text><text x="57.114" y="16.867" class="g">project-</text></svg><svg x="5346"><use xlink:href="#a"/><use xlink:href="#b" x="65.996" y="15.172"/><use xlink:href="#4"/><use xlink:href="#5" y="2.171"/><use xlink:href="#8" y="8.684"/><use xlink:href="#9" y="10.855"/><text y="16.867" class="h">?</text><text x="2.004" y="16.867" class="g">What</text><text x="7.014" y="16.867" class="g">would</text><text x="13.026" y="16.867" class="g">you</text><text x="17.034" y="16.867" class="g">like</text><text x="22.044" y="16.867" class="g">to</text><text x="25.05" y="16.867" class="j">name</text><text x="30.06" y="16.867" class="g">your</text><text x="35.07" y="16.867" class="g">project?</text><text x="44.088" y="16.867" class="k">[?</text><text x="47.094" y="16.867" class="k">for</text><text x="51.102" y="16.867" class="k">help]</text><text x="57.114" y="16.867" class="g">project-i</text></svg><svg x="5445"><use xlink:href="#a"/><use xlink:href="#b" x="66.996" y="15.172"/><use xlink:href="#4"/><use xlink:href="#5" y="2.171"/><use xlink:href="#8" y="8.684"/><use xlink:href="#9" y="10.855"/><text y="16.867" class="h">?</text><text x="2.004" y="16.867" class="g">What</text><text x="7.014" y="16.867" class="g">would</text><text x="13.026" y="16.867" class="g">you</text><text x="17.034" y="16.867" class="g">like</text><text x="22.044" y="16.867" class="g">to</text><text x="25.05" y="16.867" class="j">name</text><text x="30.06" y="16.867" class="g">your</text><text x="35.07" y="16.867" class="g">project?</text><text x="44.088" y="16.867" class="k">[?</text><text x="47.094" y="16.867" class="k">for</text><text x="51.102" y="16.867" class="k">help]</text><text x="57.114" y="16.867" class="g">project-in</text></svg><svg x="5544"><use xlink:href="#a"/><use xlink:href="#b" x="67.996" y="15.172"/><use xlink:href="#4"/><use xlink:href="#5" y="2.171"/><use xlink:href="#8" y="8.684"/><use xlink:href="#9" y="10.855"/><text y="16.867" class="h">?</text><text x="2.004" y="16.867" class="g">What</text><text x="7.014" y="16.867" class="g">would</text><text x="13.026" y="16.867" class="g">you</text><text x="17.034" y="16.867" class="g">like</text><text x="22.044" y="16.867" class="g">to</text><text x="25.05" y="16.867" class="j">name</text><text x="30.06" y="16.867" class="g">your</text><text x="35.07" y="16.867" class="g">project?</text><text x="44.088" y="16.867" class="k">[?</text><text x="47.094" y="16.867" class="k">for</text><text x="51.102" y="16.867" class="k">help]</text><text x="57.114" y="16.867" class="g">project-ini</text></svg><svg x="5643"><use xlink:href="#a"/><use xlink:href="#b" x="68.996" y="15.172"/><use xlink:href="#4"/><use xlink:href="#5" y="2.171"/><use xlink:href="#8" y="8.684"/><use xlink:href="#9" y="10.855"/><text y="16.867" class="h">?</text><text x="2.004" y="16.867" class="g">What</text><text x="7.014" y="16.867" class="g">would</text><text x="13.026" y="16.867" class="g">you</text><text x="17.034" y="16.867" class="g">like</text><text x="22.044" y="16.867" class="g">to</text><text x="25.05" y="16.867" class="j">name</text><text x="30.06" y="16.867" class="g">your</text><text x="35.07" y="16.867" class="g">project?</text><text x="44.088" y="16.867" class="k">[?</text><text x="47.094" y="16.867" class="k">for</text><text x="51.102" y="16.867" class="k">help]</text><text x="57.114" y="16.867" class="g">project-init</text></svg><svg x="5742"><use xlink:href="#a"/><use xlink:href="#b" x="69.996" y="15.172"/><use xlink:href="#4"/><use xlink:href="#5" y="2.171"/><use xlink:href="#8" y="8.684"/><use xlink:href="#9" y="10.855"/><text y="16.867" class="h">?</text><text x="2.004" y="16.867" class="g">What</text><text x="7.014" y="16.867" class="g">would</text><text x="13.026" y="16.867" class="g">you</text><text x="17.034" y="16.867" class="g">like</text><text x="22.044" y="16.867" class="g">to</text><text x="25.05" y="16.867" class="j">name</text><text x="30.06" y="16.867" class="g">your</text><text x="35.07" y="16.867" class="g">project?</text><text x="44.088" y="16.867" class="k">[?</text><text x="47.094" y="16.867" class="k">for</text><text x="51.102" y="16.867" class="k">help]</text><text x="57.114" y="16.867" class="g">project-init-</text></svg><svg x="5841"><use xlink:href="#a"/><use xlink:href="#b" x="70.996" y="15.172"/><use xlink:href="#4"/><use xlink:href="#5" y="2.171"/><use xlink:href="#8" y="8.684"/><use xlink:href="#9" y="10.855"/><text y="16.867" class="h">?</text><text x="2.004" y="16.867" class="g">What</text><text x="7.014" y="16.867" class="g">would</text><text x="13.026" y="16.867" class="g">you</text><text x="17.034" y="16.867" class="g">like</text><text x="22.044" y="16.867" class="g">to</text><text x="25.05" y="16.867" class="j">name</text><text x="30.06" y="16.867" class="g">your</text><text x="35.07" y="16.867" class="g">project?</text><text x="44.088" y="16.867" class="k">[?</text><text x="47.094" y="16.867" class="k">for</text><text x="51.102" y="16.867" class="k">help]</text><text x="57.114" y="16.867" class="g">project-init-d</text></svg><svg x="5940"><use xlink:href="#a"/><use xlink:href="#b" x="71.996" y="15.172"/><use xlink:href="#4"/><use xlink:href="#5" y="2.171"/><use xlink:href="#8" y="8.684"/><use xlink:href="#9" y="10.855"/><text y="16.867" class="h">?</text><text x="2.004" y="16.867" class="g">What</text><text x="7.014" y="16.867" class="g">would</text><text x="13.026" y="16.867" class="g">you</text><text x="17.034" y="16.867" class="g">like</text><text x="22.044" y="16.867" class="g">to</text><text x="25.05" y="16.867" class="j">name</text><text x="30.06" y="16.867" class="g">your</text><text x="35.07" y="16.867" class="g">project?</text><text x="44.088" y="16.867" class="k">[?</text><text x="47.094" y="16.867" class="k">for</text><text x="51.102" y="16.867" class="k">help]</text><text x="57.114" y="16.867" class="g">project-init-de</text></svg><svg x="6039"><use xlink:href="#a"/><use xlink:href="#b" x="72.996" y="15.172"/><use xlink:href="#4"/><use xlink:href="#5" y="2.171"/><use xlink:href="#8" y="8.684"/><use xlink:href="#9" y="10.855"/><text y="16.867" class="h">?</text><text x="2.004" y="16.867" class="g">What</text><text x="7.014" y="16.867" class="g">would</text><text x="13.026" y="16.867" class="g">you</text><text x="17.034" y="16.867" class="g">like</text><text x="22.044" y="16.867" class="g">to</text><text x="25.05" y="16.867" class="j">name</text><text x="30.06" y="16.867" class="g">your</text><text x="35.07" y="16.867" class="g">project?</text><text x="44.088" y="16.867" class="k">[?</text><text x="47.094" y="16.867" class="k">for</text><text x="51.102" y="16.867" class="k">help]</text><text x="57.114" y="16.867" class="g">project-init-dem</text></svg><svg x="6138"><use xlink:href="#a"/><use xlink:href="#b" x="73.996" y="15.172"/><use xlink:href="#4"/><use xlink:href="#5" y="2.171"/><use xlink:href="#8" y="8.684"/><use xlink:href="#9" y="10.855"/><use xlink:href="#11" y="15.197"/></svg><svg x="6237"><use xlink:href="#a"/><use xlink:href="#b" x="-.004" y="17.343"/><use xlink:href="#4"/><use xlink:href="#5" y="2.171"/><use xlink:href="#8" y="8.684"/><use xlink:href="#9" y="10.855"/><use xlink:href="#11" y="15.197"/></svg><svg x="6336"><use xlink:href="#a"/><use xlink:href="#b" x="-.004" y="19.514"/><use xlink:href="#4"/><use xlink:href="#5" y="2.171"/><use xlink:href="#8" y="8.684"/><use xlink:href="#9" y="10.855"/><use xlink:href="#12" y="17.368"/></svg><svg x="6435"><use xlink:href="#a"/><use xlink:href="#4"/><use xlink:href="#5" y="2.171"/><use xlink:href="#8" y="8.684"/><use xlink:href="#9" y="10.855"/><use xlink:href="#12" y="17.368"/></svg><svg x="6534"><use xlink:href="#a"/><use xlink:href="#4"/><use xlink:href="#5" y="2.171"/><use xlink:href="#8" y="8.684"/><use xlink:href="#9" y="10.855"/><use xlink:href="#12" y="17.368"/><use xlink:href="#13" y="19.539"/><use xlink:href="#14" y="21.71"/><use xlink:href="#15" y="23.881"/><use xlink:href="#16" y="28.223"/><use xlink:href="#17" y="30.394"/></svg><svg x="6633"><use xlink:href="#a"/><use xlink:href="#4"/><use xlink:href="#5" y="2.171"/><use xlink:href="#8" y="8.684"/><use xlink:href="#9" y="10.855"/><use xlink:href="#12" y="17.368"/><use xlink:href="#13" y="19.539"/><use xlink:href="#14" y="21.71"/><use xlink:href="#15" y="23.881"/><use xlink:href="#16" y="28.223"/><use xlink:href="#17" y="30.394"/></svg><svg x="6732"><use xlink:href="#a"/><use xlink:href="#4"/><use xlink:href="#5" y="2.171"/><use xlink:href="#8" y="8.684"/><use xlink:href="#9" y="10.855"/><use xlink:href="#12" y="17.368"/><use xlink:href="#13" y="19.539"/><use xlink:href="#14" y="21.71"/><use xlink:href="#15" y="23.881"/><use xlink:href="#16" y="28.223"/><use xlink:href="#17" y="30.394"/></svg><svg x="6831"><use xlink:href="#a"/><use xlink:href="#4"/><use xlink:href="#5" y="2.171"/><use xlink:href="#8" y="8.684"/><use xlink:href="#9" y="10.855"/><use xlink:href="#12" y="17.368"/><use xlink:href="#13" y="19.539"/><use xlink:href="#14" y="21.71"/><use xlink:href="#15" y="23.881"/><use xlink:href="#16" y="28.223"/><use xlink:href="#17" y="30.394"/><use xlink:href="#1" y="32.565"/></svg><svg x="6930"><use xlink:href="#a"/><use xlink:href="#4"/><use xlink:href="#5" y="2.171"/><use xlink:href="#8" y="8.684"/><use xlink:href="#9" y="10.855"/><use xlink:href="#12" y="17.368"/><use xlink:href="#13" y="19.539"/><use xlink:href="#14" y="21.71"/><use xlink:href="#15" y="23.881"/><use xlink:href="#16" y="28.223"/><use xlink:href="#17" y="30.394"/><use xlink:href="#1" y="32.565"/></svg><svg x="7029"><use xlink:href="#a"/><use xlink:href="#4"/><use xlink:href="#5" y="2.171"/><use xlink:href="#8" y="8.684"/><use xlink:href="#9" y="10.855"/><use xlink:href="#12" y="17.368"/><use xlink:href="#13" y="19.539"/><use xlink:href="#14" y="21.71"/><use xlink:href="#15" y="23.881"/><use xlink:href="#16" y="28.223"/><use xlink:href="#17" y="30.394"/><text y="34.235" class="f">[project-init]</text><text x="15.03" y="34.235" class="g">t</text></svg><svg x="7128"><use xlink:href="#a"/><use xlink:href="#4"/><use xlink:href="#5" y="2.171"/><use xlink:href="#8" y="8.684"/><use xlink:href="#9" y="10.855"/><use xlink:href="#12" y="17.368"/><use xlink:href="#13" y="19.539"/><use xlink:href="#14" y="21.71"/><use xlink:href="#15" y="23.881"/><use xlink:href="#16" y="28.223"/><use xlink:href="#17" y="30.394"/><text y="34.235" class="f">[project-init]</text><text x="15.03" y="34.235" class="g">tr</text></svg><svg x="7227"><use xlink:href="#a"/><use xlink:href="#4"/><use xlink:href="#5" y="2.171"/><use xlink:href="#8" y="8.684"/><use xlink:href="#9" y="10.855"/><use xlink:href="#12" y="17.368"/><use xlink:href="#13" y="19.539"/><use xlink:href="#14" y="21.71"/><use xlink:href="#15" y="23.881"/><use xlink:href="#16" y="28.223"/><use xlink:href="#17" y="30.394"/><text y="34.235" class="f">[project-init]</text><text x="15.03" y="34.235" class="g">tre</text></svg><svg x="7326"><use xlink:href="#a"/><use xlink:href="#4"/><use xlink:href="#5" y="2.171"/><use xlink:href="#8" y="8.684"/><use xlink:href="#9" y="10.855"/><use xlink:href="#12" y="17.368"/><use xlink:href="#13" y="19.539"/><use xlink:href="#14" y="21.71"/><use xlink:href="#15" y="23.881"/><use xlink:href="#16" y="28.223"/><use xlink:href="#17" y="30.394"/><use xlink:href="#18" y="32.565"/></svg><svg x="7425"><use xlink:href="#a"/><use xlink:href="#4"/><use xlink:href="#5" y="2.171"/><use xlink:href="#8" y="8.684"/><use xlink:href="#9" y="10.855"/><use xlink:href="#12" y="17.368"/><use xlink:href="#13" y="19.539"/><use xlink:href="#14" y="21.71"/><use xlink:href="#15" y="23.881"/><use xlink:href="#16" y="28.223"/><use xlink:href="#17" y="30.394"/><use xlink:href="#18" y="32.565"/></svg><svg x="7524"><use xlink:href="#a"/><use xlink:href="#4"/><use xlink:href="#5" y="2.171"/><use xlink:href="#8" y="8.684"/><use xlink:href="#9" y="10.855"/><use xlink:href="#12" y="17.368"/><use xlink:href="#13" y="19.539"/><use xlink:href="#14" y="21.71"/><use xlink:href="#15" y="23.881"/><use xlink:href="#16" y="28.223"/><use xlink:href="#17" y="30.394"/><use xlink:href="#18" y="32.565"/></svg><svg x="7623"><use xlink:href="#a"/><use xlink:href="#4"/><use xlink:href="#5" y="2.171"/><use xlink:href="#8" y="8.684"/><use xlink:href="#9" y="10.855"/><use xlink:href="#12" y="17.368"/><use xlink:href="#13" y="19.539"/><use xlink:href="#14" y="21.71"/><use xlink:href="#15" y="23.881"/><use xlink:href="#16" y="28.223"/><use xlink:href="#17" y="30.394"/><use xlink:href="#18" y="32.565"/></svg><svg x="7722"><use xlink:href="#a"/><use xlink:href="#4"/><use xlink:href="#5" y="2.171"/><use xlink:href="#8" y="8.684"/><use xlink:href="#9" y="10.855"/><use xlink:href="#12" y="17.368"/><use xlink:href="#13" y="19.539"/><use xlink:href="#14" y="21.71"/><use xlink:href="#15" y="23.881"/><use xlink:href="#16" y="28.223"/><use xlink:href="#17" y="30.394"/><use xlink:href="#18" y="32.565"/><use xlink:href="#19" y="34.736"/></svg><svg x="7821"><use xlink:href="#a"/><use xlink:href="#8" y="4.342"/><use xlink:href="#9" y="6.513"/><use xlink:href="#12" y="13.026"/><use xlink:href="#13" y="15.197"/><use xlink:href="#14" y="17.368"/><use xlink:href="#15" y="19.539"/><use xlink:href="#16" y="23.881"/><use xlink:href="#17" y="26.052"/><use xlink:href="#18" y="28.223"/><use xlink:href="#19" y="30.394"/><use xlink:href="#20" y="32.565"/><use xlink:href="#21" y="36.907"/></svg><svg x="7920"><use xlink:href="#a"/><use xlink:href="#8" y="4.342"/><use xlink:href="#9" y="6.513"/><use xlink:href="#12" y="13.026"/><use xlink:href="#13" y="15.197"/><use xlink:href="#14" y="17.368"/><use xlink:href="#15" y="19.539"/><use xlink:href="#16" y="23.881"/><use xlink:href="#17" y="26.052"/><use xlink:href="#18" y="28.223"/><use xlink:href="#19" y="30.394"/><use xlink:href="#20" y="32.565"/><use xlink:href="#21" y="36.907"/></svg><svg x="8019"><use xlink:href="#a"/><use xlink:href="#8" y="4.342"/><use xlink:href="#9" y="6.513"/><use xlink:href="#12" y="13.026"/><use xlink:href="#13" y="15.197"/><use xlink:href="#14" y="17.368"/><use xlink:href="#15" y="19.539"/><use xlink:href="#16" y="23.881"/><use xlink:href="#17" y="26.052"/><use xlink:href="#18" y="28.223"/><use xlink:href="#19" y="30.394"/><use xlink:href="#20" y="32.565"/><use xlink:href="#21" y="36.907"/></svg><svg x="8118"><use xlink:href="#a"/><use xlink:href="#8" y="4.342"/><use xlink:href="#9" y="6.513"/><use xlink:href="#12" y="13.026"/><use xlink:href="#13" y="15.197"/><use xlink:href="#14" y="17.368"/><use xlink:href="#15" y="19.539"/><use xlink:href="#16" y="23.881"/><use xlink:href="#17" y="26.052"/><use xlink:href="#18" y="28.223"/><use xlink:href="#19" y="30.394"/><use xlink:href="#20" y="32.565"/><use xlink:href="#21" y="36.907"/><use xlink:href="#1" y="39.078"/></svg><svg x="8217"><use xlink:href="#a"/><use xlink:href="#8" y="4.342"/><use xlink:href="#9" y="6.513"/><use xlink:href="#12" y="13.026"/><use xlink:href="#13" y="15.197"/><use xlink:href="#14" y="17.368"/><use xlink:href="#15" y="19.539"/><use xlink:href="#16" y="23.881"/><use xlink:href="#17" y="26.052"/><use xlink:href="#18" y="28.223"/><use xlink:href="#19" y="30.394"/><use xlink:href="#20" y="32.565"/><use xlink:href="#21" y="36.907"/><use xlink:href="#1" y="39.078"/></svg><svg x="8316"><use xlink:href="#a"/><use xlink:href="#8" y="2.171"/><use xlink:href="#9" y="4.342"/><use xlink:href="#12" y="10.855"/><use xlink:href="#13" y="13.026"/><use xlink:href="#14" y="15.197"/><use xlink:href="#15" y="17.368"/><use xlink:href="#16" y="21.71"/><use xlink:href="#17" y="23.881"/><use xlink:href="#18" y="26.052"/><use xlink:href="#19" y="28.223"/><use xlink:href="#20" y="30.394"/><use xlink:href="#21" y="34.736"/><use xlink:href="#1" y="36.907"/></svg></svg></g></g></svg></svg>