<svg xmlns="http://www.w3.org/2000/svg" xmlns:xlink="http://www.w3.org/1999/xlink" width="460" height="211.97"><rect width="460" height="211.97" rx="5" ry="5" class="a"/><svg y="0%" x="0%"><circle cx="20" cy="20" r="6" fill="#ff5f58"/><circle cx="40" cy="20" r="6" fill="#ffbd2e"/><circle cx="60" cy="20" r="6" fill="#18c132"/></svg><svg height="151.97" viewBox="0 0 42 15.197" width="420" x="15" xmlns="http://www.w3.org/2000/svg" xmlns:xlink="http://www.w3.org/1999/xlink" y="50"><style>@keyframes j{0%{transform:translateX(0)}7.1%{transform:translateX(-42px)}12.1%{transform:translateX(-168px)}19.1%{transform:translateX(-210px)}22.7%{transform:translateX(-252px)}23.7%{transform:translateX(-294px)}25.2%{transform:translateX(-336px)}28.7%{transform:translateX(-378px)}30.5%{transform:translateX(-420px)}31.4%{transform:translateX(-462px)}34.6%{transform:translateX(-504px)}36.4%{transform:translateX(-546px)}38%{transform:translateX(-588px)}39.1%{transform:translateX(-630px)}42.1%{transform:translateX(-672px)}44.7%{transform:translateX(-714px)}47%{transform:translateX(-756px)}48.2%{transform:translateX(-798px)}50.6%{transform:translateX(-840px)}52.3%{transform:translateX(-882px)}53.4%{transform:translateX(-924px)}54.5%{transform:translateX(-966px)}58.4%{transform:translateX(-1092px)}58.7%{transform:translateX(-1176px)}58.8%{transform:translateX(-1218px)}61.4%{transform:translateX(-1302px)}to{transform:translateX(-1344px)}}.a{fill:#282d35}.f,.g{fill:#d290e4;white-space:pre}.g{fill:#b9c0cb}</style><g font-family="Monaco,Consolas,Menlo,'Bitstream Vera Sans Mono','Powerline Symbols',monospace" font-size="1.67"><defs><symbol id="1"><text y="1.67" class="f">[version]</text></symbol><symbol id="2"><text y="1.67" class="f">[version]</text><text x="10.02" y="1.67" class="g">ecs-preview</text></symbol><symbol id="3"><text y="1.67" class="f">[version]</text><text x="10.02" y="1.67" class="g">ecs-preview</text><text x="22.044" y="1.67" class="g">version</text></symbol><symbol id="4"><text y="1.67" class="g">version:</text><text x="9.018" y="1.67" class="g">v0.0.7,</text><text x="17.034" y="1.67" class="g">built</text><text x="23.046" y="1.67" class="g">for</text><text x="27.054" y="1.67" class="g">darwin</text></symbol><symbol id="a"><path fill="transparent" d="M0 0h42v7H0z"/></symbol><symbol id="b"><path fill="#6f7683" d="M0 0h1.102v2.171H0z"/></symbol></defs><path class="a" d="M0 0h42v15.197H0z"/><g style="animation-duration:6.651612s;animation-iteration-count:infinite;animation-name:j;animation-timing-function:steps(1,end)"><svg width="1386"><svg><use xlink:href="#a"/><use xlink:href="#b" x="-.004"/></svg><svg x="42"><use xlink:href="#a"/><use xlink:href="#b" x="-.004"/></svg><svg x="84"><use xlink:href="#a"/><use xlink:href="#b" x="9.996"/><use xlink:href="#1"/></svg><svg x="126"><use xlink:href="#a"/><use xlink:href="#b" x="9.996"/><use xlink:href="#1"/></svg><svg x="168"><use xlink:href="#a"/><use xlink:href="#b" x="9.996"/><use xlink:href="#1"/></svg><svg x="210"><use xlink:href="#a"/><use xlink:href="#b" x="10.996"/><text y="1.67" class="f">[version]</text><text x="10.02" y="1.67" class="g">e</text></svg><svg x="252"><use xlink:href="#a"/><use xlink:href="#b" x="11.996"/><text y="1.67" class="f">[version]</text><text x="10.02" y="1.67" class="g">ec</text></svg><svg x="294"><use xlink:href="#a"/><use xlink:href="#b" x="12.996"/><text y="1.67" class="f">[version]</text><text x="10.02" y="1.67" class="g">ecs</text></svg><svg x="336"><use xlink:href="#a"/><use xlink:href="#b" x="13.996"/><text y="1.67" class="f">[version]</text><text x="10.02" y="1.67" class="g">ecs-</text></svg><svg x="378"><use xlink:href="#a"/><use xlink:href="#b" x="14.996"/><text y="1.67" class="f">[version]</text><text x="10.02" y="1.67" class="g">ecs-p</text></svg><svg x="420"><use xlink:href="#a"/><use xlink:href="#b" x="15.996"/><text y="1.67" class="f">[version]</text><text x="10.02" y="1.67" class="g">ecs-pr</text></svg><svg x="462"><use xlink:href="#a"/><use xlink:href="#b" x="16.996"/><text y="1.67" class="f">[version]</text><text x="10.02" y="1.67" class="g">ecs-pre</text></svg><svg x="504"><use xlink:href="#a"/><use xlink:href="#b" x="17.996"/><text y="1.67" class="f">[version]</text><text x="10.02" y="1.67" class="g">ecs-prev</text></svg><svg x="546"><use xlink:href="#a"/><use xlink:href="#b" x="18.996"/><text y="1.67" class="f">[version]</text><text x="10.02" y="1.67" class="g">ecs-previ</text></svg><svg x="588"><use xlink:href="#a"/><use xlink:href="#b" x="19.996"/><text y="1.67" class="f">[version]</text><text x="10.02" y="1.67" class="g">ecs-previe</text></svg><svg x="630"><use xlink:href="#a"/><use xlink:href="#b" x="20.996"/><use xlink:href="#2"/></svg><svg x="672"><use xlink:href="#a"/><use xlink:href="#b" x="21.996"/><use xlink:href="#2"/></svg><svg x="714"><use xlink:href="#a"/><use xlink:href="#b" x="22.996"/><text y="1.67" class="f">[version]</text><text x="10.02" y="1.67" class="g">ecs-preview</text><text x="22.044" y="1.67" class="g">v</text></svg><svg x="756"><use xlink:href="#a"/><use xlink:href="#b" x="23.996"/><text y="1.67" class="f">[version]</text><text x="10.02" y="1.67" class="g">ecs-preview</text><text x="22.044" y="1.67" class="g">ve</text></svg><svg x="798"><use xlink:href="#a"/><use xlink:href="#b" x="24.996"/><text y="1.67" class="f">[version]</text><text x="10.02" y="1.67" class="g">ecs-preview</text><text x="22.044" y="1.67" class="g">ver</text></svg><svg x="840"><use xlink:href="#a"/><use xlink:href="#b" x="25.996"/><text y="1.67" class="f">[version]</text><text x="10.02" y="1.67" class="g">ecs-preview</text><text x="22.044" y="1.67" class="g">vers</text></svg><svg x="882"><use xlink:href="#a"/><use xlink:href="#b" x="26.996"/><text y="1.67" class="f">[version]</text><text x="10.02" y="1.67" class="g">ecs-preview</text><text x="22.044" y="1.67" class="g">versi</text></svg><svg x="924"><use xlink:href="#a"/><use xlink:href="#b" x="27.996"/><text y="1.67" class="f">[version]</text><text x="10.02" y="1.67" class="g">ecs-preview</text><text x="22.044" y="1.67" class="g">versio</text></svg><svg x="966"><use xlink:href="#a"/><use xlink:href="#b" x="28.996"/><use xlink:href="#3"/></svg><svg x="1008"><use xlink:href="#a"/><use xlink:href="#b" x="28.996"/><use xlink:href="#3"/></svg><svg x="1050"><use xlink:href="#a"/><use xlink:href="#b" x="-.004" y="2.146"/><use xlink:href="#3"/></svg><svg x="1092"><use xlink:href="#a"/><use xlink:href="#b" x="-.004" y="2.146"/><use xlink:href="#3"/></svg><svg x="1134"><use xlink:href="#a"/><use xlink:href="#b" x="-.004" y="4.317"/><use xlink:href="#3"/><use xlink:href="#4" y="2.171"/></svg><svg x="1176"><use xlink:href="#a"/><use xlink:href="#b" x="-.004" y="4.317"/><use xlink:href="#3"/><use xlink:href="#4" y="2.171"/></svg><svg x="1218"><use xlink:href="#a"/><use xlink:href="#b" x="-.004" y="4.317"/><use xlink:href="#3"/><use xlink:href="#4" y="2.171"/></svg><svg x="1260"><use xlink:href="#a"/><use xlink:href="#b" x="9.996" y="4.317"/><use xlink:href="#3"/><use xlink:href="#4" y="2.171"/><use xlink:href="#1" y="4.342"/></svg><svg x="1302"><use xlink:href="#a"/><use xlink:href="#b" x="9.996" y="4.317"/><use xlink:href="#3"/><use xlink:href="#4" y="2.171"/><use xlink:href="#1" y="4.342"/></svg><svg x="1344"><use xlink:href="#a"/><use xlink:href="#b" x="-.004" y="6.488"/><use xlink:href="#3"/><use xlink:href="#4" y="2.171"/><use xlink:href="#1" y="4.342"/></svg></svg></g></g></svg></svg>